<?xml version="1.0" encoding="UTF-8" standalone="no"?>
<!-- Created with Inkscape (http://www.inkscape.org/) -->
<svg
   xmlns:dc="http://purl.org/dc/elements/1.1/"
   xmlns:cc="http://creativecommons.org/ns#"
   xmlns:rdf="http://www.w3.org/1999/02/22-rdf-syntax-ns#"
   xmlns:svg="http://www.w3.org/2000/svg"
   xmlns="http://www.w3.org/2000/svg"
   xmlns:xlink="http://www.w3.org/1999/xlink"
   xmlns:sodipodi="http://sodipodi.sourceforge.net/DTD/sodipodi-0.dtd"
   xmlns:inkscape="http://www.inkscape.org/namespaces/inkscape"
   width="744.09448819"
   height="1052.3622047"
   id="svg2"
   sodipodi:version="0.32"
   inkscape:version="0.46"
   sodipodi:docname="SheepCounter.svg"
   inkscape:output_extension="org.inkscape.output.svg.inkscape"
   inkscape:export-filename="C:\Documents and Settings\chill\My Documents\+Designs\+Sleep\SheepCounter.png"
   inkscape:export-xdpi="90"
   inkscape:export-ydpi="90">
  <defs
     id="defs4">
    <linearGradient
       inkscape:collect="always"
       id="linearGradient3609">
      <stop
         style="stop-color:#666666;stop-opacity:1;"
         offset="0"
         id="stop3611" />
      <stop
         style="stop-color:#666666;stop-opacity:0;"
         offset="1"
         id="stop3613" />
    </linearGradient>
    <linearGradient
       inkscape:collect="always"
       id="linearGradient3599">
      <stop
         style="stop-color:#999999;stop-opacity:1;"
         offset="0"
         id="stop3601" />
      <stop
         style="stop-color:#999999;stop-opacity:0;"
         offset="1"
         id="stop3603" />
    </linearGradient>
    <linearGradient
       inkscape:collect="always"
       id="linearGradient3589">
      <stop
         style="stop-color:#ffffff;stop-opacity:1;"
         offset="0"
         id="stop3591" />
      <stop
         style="stop-color:#ffffff;stop-opacity:0;"
         offset="1"
         id="stop3593" />
    </linearGradient>
    <linearGradient
       inkscape:collect="always"
       id="linearGradient3553">
      <stop
         style="stop-color:#1a1a1a;stop-opacity:1;"
         offset="0"
         id="stop3555" />
      <stop
         style="stop-color:#1a1a1a;stop-opacity:0;"
         offset="1"
         id="stop3557" />
    </linearGradient>
    <linearGradient
       inkscape:collect="always"
       id="linearGradient3570">
      <stop
         style="stop-color:#333333;stop-opacity:1;"
         offset="0"
         id="stop3572" />
      <stop
         style="stop-color:#333333;stop-opacity:0;"
         offset="1"
         id="stop3574" />
    </linearGradient>
    <linearGradient
       inkscape:collect="always"
       id="linearGradient3476">
      <stop
         style="stop-color:#ffffff;stop-opacity:1;"
         offset="0"
         id="stop3478" />
      <stop
         style="stop-color:#ffffff;stop-opacity:0;"
         offset="1"
         id="stop3480" />
    </linearGradient>
    <linearGradient
       inkscape:collect="always"
       id="linearGradient3422">
      <stop
         style="stop-color:#ffffff;stop-opacity:1;"
         offset="0"
         id="stop3424" />
      <stop
         style="stop-color:#ffffff;stop-opacity:0;"
         offset="1"
         id="stop3426" />
    </linearGradient>
    <inkscape:perspective
       sodipodi:type="inkscape:persp3d"
       inkscape:vp_x="0 : 526.18109 : 1"
       inkscape:vp_y="0 : 1000 : 0"
       inkscape:vp_z="744.09448 : 526.18109 : 1"
       inkscape:persp3d-origin="372.04724 : 350.78739 : 1"
       id="perspective10" />
    <inkscape:perspective
       id="perspective2390"
       inkscape:persp3d-origin="372.04724 : 350.78739 : 1"
       inkscape:vp_z="744.09448 : 526.18109 : 1"
       inkscape:vp_y="0 : 1000 : 0"
       inkscape:vp_x="0 : 526.18109 : 1"
       sodipodi:type="inkscape:persp3d" />
    <inkscape:perspective
       id="perspective3222"
       inkscape:persp3d-origin="372.04724 : 350.78739 : 1"
       inkscape:vp_z="744.09448 : 526.18109 : 1"
       inkscape:vp_y="0 : 1000 : 0"
       inkscape:vp_x="0 : 526.18109 : 1"
       sodipodi:type="inkscape:persp3d" />
    <inkscape:perspective
       id="perspective3235"
       inkscape:persp3d-origin="372.04724 : 350.78739 : 1"
       inkscape:vp_z="744.09448 : 526.18109 : 1"
       inkscape:vp_y="0 : 1000 : 0"
       inkscape:vp_x="0 : 526.18109 : 1"
       sodipodi:type="inkscape:persp3d" />
    <inkscape:perspective
       id="perspective3248"
       inkscape:persp3d-origin="372.04724 : 350.78739 : 1"
       inkscape:vp_z="744.09448 : 526.18109 : 1"
       inkscape:vp_y="0 : 1000 : 0"
       inkscape:vp_x="0 : 526.18109 : 1"
       sodipodi:type="inkscape:persp3d" />
    <filter
       inkscape:collect="always"
       id="filter3400"
       x="-0.084626343"
       width="1.1692527"
       y="-0.13271047"
       height="1.2654209">
      <feGaussianBlur
         inkscape:collect="always"
         stdDeviation="6.1389174"
         id="feGaussianBlur3402" />
    </filter>
    <filter
       inkscape:collect="always"
       id="filter3462">
      <feGaussianBlur
         inkscape:collect="always"
         stdDeviation="1.0878149"
         id="feGaussianBlur3464" />
    </filter>
    <filter
       inkscape:collect="always"
       id="filter3564"
       x="-0.15314502"
       width="1.30629"
       y="-0.18242397"
       height="1.3648479">
      <feGaussianBlur
         inkscape:collect="always"
         stdDeviation="3.9538748"
         id="feGaussianBlur3566" />
    </filter>
    <inkscape:perspective
       id="perspective3625"
       inkscape:persp3d-origin="372.04724 : 350.78739 : 1"
       inkscape:vp_z="744.09448 : 526.18109 : 1"
       inkscape:vp_y="0 : 1000 : 0"
       inkscape:vp_x="0 : 526.18109 : 1"
       sodipodi:type="inkscape:persp3d" />
    <inkscape:perspective
       sodipodi:type="inkscape:persp3d"
       inkscape:vp_x="0 : 526.18109 : 1"
       inkscape:vp_y="0 : 1000 : 0"
       inkscape:vp_z="744.09448 : 526.18109 : 1"
       inkscape:persp3d-origin="372.04724 : 350.78739 : 1"
       id="perspective3881" />
    <filter
       id="filter3280"
       inkscape:collect="always">
      <feGaussianBlur
         id="feGaussianBlur3282"
         stdDeviation="1.9130775"
         inkscape:collect="always" />
    </filter>
    <inkscape:perspective
       sodipodi:type="inkscape:persp3d"
       inkscape:vp_x="0 : 526.18109 : 1"
       inkscape:vp_y="0 : 1000 : 0"
       inkscape:vp_z="744.09448 : 526.18109 : 1"
       inkscape:persp3d-origin="372.04724 : 350.78739 : 1"
       id="perspective2442" />
    <inkscape:perspective
       id="perspective3690"
       inkscape:persp3d-origin="372.04724 : 350.78739 : 1"
       inkscape:vp_z="744.09448 : 526.18109 : 1"
       inkscape:vp_y="0 : 1000 : 0"
       inkscape:vp_x="0 : 526.18109 : 1"
       sodipodi:type="inkscape:persp3d" />
    <linearGradient
       id="linearGradient3286"
       inkscape:collect="always">
      <stop
         id="stop3288"
         offset="0"
         style="stop-color:#1c2224;stop-opacity:1;" />
      <stop
         id="stop3290"
         offset="1"
         style="stop-color:#1c2224;stop-opacity:0;" />
    </linearGradient>
    <linearGradient
       id="linearGradient3334"
       inkscape:collect="always">
      <stop
         id="stop3336"
         offset="0"
         style="stop-color:#ffffff;stop-opacity:1;" />
      <stop
         id="stop3338"
         offset="1"
         style="stop-color:#ffffff;stop-opacity:0;" />
    </linearGradient>
    <linearGradient
       id="linearGradient3344"
       inkscape:collect="always">
      <stop
         id="stop3346"
         offset="0"
         style="stop-color:#f2f2f2;stop-opacity:1;" />
      <stop
         id="stop3348"
         offset="1"
         style="stop-color:#f2f2f2;stop-opacity:0;" />
    </linearGradient>
    <inkscape:perspective
       id="perspective4006"
       inkscape:persp3d-origin="372.04724 : 350.78739 : 1"
       inkscape:vp_z="744.09448 : 526.18109 : 1"
       inkscape:vp_y="0 : 1000 : 0"
       inkscape:vp_x="0 : 526.18109 : 1"
       sodipodi:type="inkscape:persp3d" />
    <inkscape:perspective
       id="perspective4019"
       inkscape:persp3d-origin="372.04724 : 350.78739 : 1"
       inkscape:vp_z="744.09448 : 526.18109 : 1"
       inkscape:vp_y="0 : 1000 : 0"
       inkscape:vp_x="0 : 526.18109 : 1"
       sodipodi:type="inkscape:persp3d" />
    <linearGradient
       inkscape:collect="always"
       xlink:href="#linearGradient3476"
       id="linearGradient4079"
       gradientUnits="userSpaceOnUse"
       gradientTransform="translate(4.2931483,0.5050763)"
       x1="535.62384"
       y1="562.00507"
       x2="490.71429"
       y2="609.50507" />
    <linearGradient
       inkscape:collect="always"
       xlink:href="#linearGradient3422"
       id="linearGradient4081"
       gradientUnits="userSpaceOnUse"
       x1="525.71429"
       y1="574.14789"
       x2="508.92856"
       y2="603.43359" />
    <linearGradient
       inkscape:collect="always"
       xlink:href="#linearGradient3570"
       id="linearGradient4083"
       gradientUnits="userSpaceOnUse"
       gradientTransform="translate(-0.5050763,0)"
       x1="462.5"
       y1="646.64789"
       x2="505.35715"
       y2="579.65344" />
    <linearGradient
       inkscape:collect="always"
       xlink:href="#linearGradient3344"
       id="linearGradient4085"
       gradientUnits="userSpaceOnUse"
       gradientTransform="matrix(0.9880474,0,0,1.459545,-62.267197,-450.479)"
       x1="365.71429"
       y1="710.41003"
       x2="365.71429"
       y2="764.91864" />
    <linearGradient
       inkscape:collect="always"
       xlink:href="#linearGradient3286"
       id="linearGradient4087"
       gradientUnits="userSpaceOnUse"
       gradientTransform="translate(242.31034,-66.606934)"
       x1="246.9823"
       y1="686.18188"
       x2="246.9823"
       y2="734.64154" />
    <linearGradient
       inkscape:collect="always"
       xlink:href="#linearGradient3334"
       id="linearGradient4089"
       gradientUnits="userSpaceOnUse"
       gradientTransform="translate(0.4464286,-8.5714286)"
       x1="358.21426"
       y1="580.2193"
       x2="358.21429"
       y2="671.64789" />
    <inkscape:perspective
       id="perspective3252"
       inkscape:persp3d-origin="372.04724 : 350.78739 : 1"
       inkscape:vp_z="744.09448 : 526.18109 : 1"
       inkscape:vp_y="0 : 1000 : 0"
       inkscape:vp_x="0 : 526.18109 : 1"
       sodipodi:type="inkscape:persp3d" />
    <filter
       inkscape:collect="always"
       id="filter3333">
      <feGaussianBlur
         inkscape:collect="always"
         stdDeviation="0.2037432"
         id="feGaussianBlur3335" />
    </filter>
    <filter
       inkscape:collect="always"
       id="filter3373">
      <feGaussianBlur
         inkscape:collect="always"
         stdDeviation="0.2723114"
         id="feGaussianBlur3375" />
    </filter>
    <filter
       inkscape:collect="always"
       id="filter3475"
       x="-0.20169136"
       width="1.4033827"
       y="-0.085990209"
       height="1.1719804">
      <feGaussianBlur
         inkscape:collect="always"
         stdDeviation="1.8308325"
         id="feGaussianBlur3477" />
    </filter>
    <linearGradient
       inkscape:collect="always"
       xlink:href="#linearGradient3476"
       id="linearGradient3499"
       gradientUnits="userSpaceOnUse"
       gradientTransform="translate(4.2931483,0.5050763)"
       x1="535.62384"
       y1="562.00507"
       x2="490.71429"
       y2="609.50507" />
    <linearGradient
       inkscape:collect="always"
       xlink:href="#linearGradient3422"
       id="linearGradient3501"
       gradientUnits="userSpaceOnUse"
       x1="525.71429"
       y1="574.14789"
       x2="508.92856"
       y2="603.43359" />
    <linearGradient
       inkscape:collect="always"
       xlink:href="#linearGradient3570"
       id="linearGradient3503"
       gradientUnits="userSpaceOnUse"
       gradientTransform="translate(-0.5050763,0)"
       x1="462.5"
       y1="646.64789"
       x2="505.35715"
       y2="579.65344" />
    <linearGradient
       inkscape:collect="always"
       xlink:href="#linearGradient3570"
       id="linearGradient3506"
       gradientUnits="userSpaceOnUse"
       gradientTransform="matrix(0.5546838,1.6061434e-8,-1.6061434e-8,0.5546838,404.5858,132.48263)"
       x1="462.5"
       y1="646.64789"
       x2="505.35715"
       y2="579.65344" />
    <linearGradient
       inkscape:collect="always"
       xlink:href="#linearGradient3422"
       id="linearGradient3510"
       gradientUnits="userSpaceOnUse"
       x1="525.71429"
       y1="574.14789"
       x2="508.92856"
       y2="603.43359"
       gradientTransform="matrix(0.5546838,1.6061434e-8,-1.6061434e-8,0.5546838,439.45856,118.07323)" />
    <linearGradient
       inkscape:collect="always"
       xlink:href="#linearGradient3476"
       id="linearGradient3518"
       gradientUnits="userSpaceOnUse"
       gradientTransform="translate(4.2931483,0.5050763)"
       x1="535.62384"
       y1="562.00507"
       x2="490.71429"
       y2="609.50507" />
    <linearGradient
       inkscape:collect="always"
       xlink:href="#linearGradient3553"
       id="linearGradient3559"
       x1="646.42859"
       y1="429.86218"
       x2="718.92859"
       y2="446.64792"
       gradientUnits="userSpaceOnUse" />
    <linearGradient
       inkscape:collect="always"
       xlink:href="#linearGradient3589"
       id="linearGradient3595"
       x1="763.57141"
       y1="327.36218"
       x2="722.85712"
       y2="424.14792"
       gradientUnits="userSpaceOnUse"
       gradientTransform="matrix(1.0111646,0,0,1.0111646,-8.427469,-4.3602195)" />
    <linearGradient
       inkscape:collect="always"
       xlink:href="#linearGradient3599"
       id="linearGradient3605"
       x1="820.74896"
       y1="567.48895"
       x2="834.38599"
       y2="518.49652"
       gradientUnits="userSpaceOnUse"
       gradientTransform="translate(-39.100083,-65.302772)" />
    <linearGradient
       inkscape:collect="always"
       xlink:href="#linearGradient3609"
       id="linearGradient3615"
       x1="779.28577"
       y1="497.7193"
       x2="812.5"
       y2="416.29074"
       gradientUnits="userSpaceOnUse"
       gradientTransform="translate(-0.1785714,0.1785714)" />
    <filter
       inkscape:collect="always"
       id="filter3625">
      <feGaussianBlur
         inkscape:collect="always"
         stdDeviation="0.036872431"
         id="feGaussianBlur3627" />
    </filter>
    <filter
       inkscape:collect="always"
       id="filter3629">
      <feGaussianBlur
         inkscape:collect="always"
         stdDeviation="0.054122079"
         id="feGaussianBlur3631" />
    </filter>
    <filter
       inkscape:collect="always"
       id="filter3776"
       x="-0.058702133"
       width="1.1174043"
       y="-0.15798982"
       height="1.3159796">
      <feGaussianBlur
         inkscape:collect="always"
         stdDeviation="12.052957"
         id="feGaussianBlur3778" />
    </filter>
    <filter
       inkscape:collect="always"
       id="filter3908"
       x="-0.059408039"
       width="1.1188161"
       y="-0.15650718"
       height="1.3130144">
      <feGaussianBlur
         inkscape:collect="always"
         stdDeviation="1.8340685"
         id="feGaussianBlur3910" />
    </filter>
    <linearGradient
       inkscape:collect="always"
       xlink:href="#linearGradient3344"
       id="linearGradient4018"
       gradientUnits="userSpaceOnUse"
       gradientTransform="matrix(0.9880474,0,0,1.459545,-38.885502,-119.34085)"
       x1="365.71429"
       y1="710.41003"
       x2="365.71429"
       y2="764.91864" />
    <linearGradient
       inkscape:collect="always"
       xlink:href="#linearGradient3286"
       id="linearGradient4020"
       gradientUnits="userSpaceOnUse"
       gradientTransform="translate(265.69203,264.53122)"
       x1="246.9823"
       y1="686.18188"
       x2="246.9823"
       y2="734.64154" />
    <linearGradient
       inkscape:collect="always"
       xlink:href="#linearGradient3344"
       id="linearGradient4034"
       gradientUnits="userSpaceOnUse"
       gradientTransform="matrix(0.9880474,0,0,1.459545,-38.885502,-119.34085)"
       x1="365.71429"
       y1="710.41003"
       x2="365.71429"
       y2="764.91864" />
    <linearGradient
       inkscape:collect="always"
       xlink:href="#linearGradient3286"
       id="linearGradient4036"
       gradientUnits="userSpaceOnUse"
       gradientTransform="translate(265.69203,264.53122)"
       x1="246.9823"
       y1="686.18188"
       x2="246.9823"
       y2="734.64154" />
  </defs>
  <sodipodi:namedview
     id="base"
     pagecolor="#ffffff"
     bordercolor="#666666"
     borderopacity="1.0"
     gridtolerance="10000"
     guidetolerance="10"
     objecttolerance="10"
     inkscape:pageopacity="0.0"
     inkscape:pageshadow="2"
     inkscape:zoom="0.35"
     inkscape:cx="807.3123"
     inkscape:cy="460.51859"
     inkscape:document-units="px"
     inkscape:current-layer="layer1"
     showgrid="false"
     inkscape:window-width="1323"
     inkscape:window-height="866"
     inkscape:window-x="0"
     inkscape:window-y="0"
     showguides="true"
     inkscape:guide-bbox="true">
    <sodipodi:guide
       orientation="1,0"
       position="-8.0812204,848.52814"
       id="guide4022" />
  </sodipodi:namedview>
  <metadata
     id="metadata7">
    <rdf:RDF>
      <cc:Work
         rdf:about="">
        <dc:format>image/svg+xml</dc:format>
        <dc:type
           rdf:resource="http://purl.org/dc/dcmitype/StillImage" />
      </cc:Work>
    </rdf:RDF>
  </metadata>
  <g
     inkscape:label="Layer 1"
     inkscape:groupmode="layer"
     id="layer1">
    <rect
       style="fill:#86ccde;fill-opacity:1;fill-rule:evenodd;stroke:none;stroke-width:0.67942864;stroke-linecap:round;stroke-linejoin:round;marker:none;marker-start:none;marker-mid:none;marker-end:none;stroke-miterlimit:4;stroke-dasharray:none;stroke-dashoffset:0;stroke-opacity:1;visibility:visible;display:inline;overflow:visible;enable-background:accumulate"
       id="rect3238"
       width="746.79437"
       height="1054.1815"
       x="-8.0812206"
       y="0.65590662" />
    <rect
       style="opacity:1;fill:#ffffff;fill-opacity:1;fill-rule:evenodd;stroke:none;stroke-width:4.80000019;stroke-linecap:round;stroke-linejoin:round;marker:none;marker-start:none;marker-mid:none;marker-end:none;stroke-miterlimit:4;stroke-dasharray:none;stroke-dashoffset:0;stroke-opacity:1;visibility:visible;display:inline;overflow:visible;enable-background:accumulate"
       id="rect3669"
       width="907.117"
       height="749.5332"
       x="-131.31982"
       y="211.91527" />
    <path
       style="fill:#000000;filter:url(#filter3776);opacity:0.24390244"
       d="M 405.47192,464.27233 C 405.05954,464.26196 404.5254,464.33954 404.09692,464.45983 C 403.5256,464.62022 402.99502,464.69675 402.90942,464.64733 C 402.82382,464.59791 402.22081,464.61637 401.59692,464.67858 C 400.97302,464.74079 400.01577,464.74636 399.44067,464.67858 C 398.86555,464.61078 398.12304,464.63895 397.78442,464.74108 C 397.4458,464.84324 397.07141,464.8605 396.97192,464.80358 C 396.87243,464.74667 396.23367,464.77816 395.53442,464.86608 C 394.8352,464.95402 394.23084,465.01425 394.19067,464.99108 C 394.09721,464.93713 392.81423,465.03573 391.72192,465.17858 C 390.90491,465.28544 389.85376,465.27172 387.19067,465.17858 C 386.54351,465.15595 385.85138,465.00529 385.47192,464.83483 C 383.39671,466.01696 381.33895,467.22944 378.81567,468.49108 C 370.70127,472.54828 362.82415,483.15474 353.56567,488.70983 C 340.53387,496.52889 329.97676,495.77233 315.15942,495.77233 C 304.38445,495.77234 293.62188,495.77233 282.84692,495.77233 C 269.71494,495.77234 256.57266,495.77233 243.44067,495.77233 C 223.57907,495.77234 204.5156,488.70983 184.84692,488.70983 C 167.65657,488.70982 150.67086,485.67858 133.34692,485.67858 C 118.56185,485.67856 104.56198,488.28006 90.909419,493.74108 C 76.700667,499.42461 65.326609,507.28452 52.534419,514.95983 C 37.143646,524.19433 21.975127,535.79931 11.096919,550.30358 C -4.1702708,570.65986 -31.829917,579.98728 -47.465581,600.83483 C -51.667067,606.43682 -56.1605,611.45319 -60.809331,616.17858 L -6.7780805,647.36608 L -6.5593305,646.99108 C -6.3038205,646.54829 -3.4992897,643.76993 -0.46558054,640.92858 C 0.71285946,639.82486 3.0241295,637.58153 4.6906695,635.95983 C 10.151949,630.64552 17.972378,623.11062 19.409419,621.77233 C 20.184209,621.05076 21.516059,619.80334 22.346919,618.99108 C 23.177769,618.17883 24.456749,616.956 25.190669,616.27233 C 25.924599,615.58869 27.285858,614.23964 28.221919,613.30358 C 29.157989,612.36752 30.61545,610.97605 31.471919,610.17858 C 32.328369,609.38112 33.369148,608.38458 33.753169,607.99108 C 34.780139,606.9388 37.3507,604.77402 39.003169,603.55358 C 39.797939,602.9666 40.692178,602.27344 41.003169,602.02233 C 41.314159,601.77123 42.208511,601.07812 43.003169,600.49108 C 43.797849,599.90404 45.6867,598.46547 47.190669,597.30358 C 48.694649,596.14173 50.583828,594.73459 51.378169,594.14733 C 52.172529,593.56011 53.367067,592.62237 54.034419,592.08483 C 54.701789,591.54733 55.734038,590.74951 56.346919,590.30358 C 56.959809,589.85766 57.880457,589.16172 58.378169,588.77233 C 58.875889,588.38296 59.775139,587.6927 60.378169,587.24108 C 60.981209,586.78947 61.879078,586.09841 62.378169,585.70983 C 62.877249,585.32125 63.863432,584.60222 64.565669,584.08483 C 65.267889,583.56744 66.32738,582.7673 66.909419,582.30358 C 68.045849,581.39817 70.266838,579.6968 71.253169,578.99108 C 71.586269,578.75275 72.422688,578.11839 73.096919,577.58483 C 73.771169,577.0513 74.96267,576.14307 75.753169,575.55358 C 76.543669,574.96413 77.444008,574.27447 77.753169,574.02233 C 79.049629,572.96491 80.428242,572.04882 81.534419,571.52233 C 82.182969,571.2136 83.085758,570.75547 83.534419,570.52233 C 83.983069,570.2892 85.602376,569.52221 87.128169,568.80358 C 88.653949,568.08496 90.576559,567.13543 91.409419,566.70983 C 92.242269,566.28419 93.508959,565.67776 94.221919,565.33483 C 94.934889,564.99186 96.828089,564.06388 98.440669,563.27233 C 102.09525,561.47847 101.88793,561.57218 105.12817,560.02233 C 106.61214,559.31254 109.79787,557.75865 112.19067,556.58483 C 114.58348,555.41102 118.29556,553.7183 120.44067,552.80358 C 122.5858,551.88884 124.7564,550.91417 125.25317,550.64733 C 125.74995,550.38046 126.54603,550.04602 127.03442,549.89733 C 127.52282,549.74867 130.96386,548.31091 134.69067,546.70983 C 138.41747,545.10874 142.28567,543.53625 143.28442,543.20983 C 144.28317,542.88336 145.97292,542.33783 147.03442,541.99108 C 148.09591,541.64432 150.09501,540.95795 151.47192,540.49108 C 155.53457,539.11355 158.42435,538.33503 159.00317,538.42858 C 160.29735,538.63776 164.5918,539.30409 166.00317,539.52233 C 166.85035,539.65333 168.03958,539.90093 168.62817,540.05358 C 169.63223,540.31399 170.39002,540.5323 174.90942,541.95983 C 175.89804,542.27208 177.47267,542.75807 178.40942,543.05358 C 181.03512,543.8819 181.52254,544.06687 182.72192,544.49108 C 183.33498,544.7079 184.17994,544.98587 184.59692,545.11608 C 185.01389,545.24632 185.90225,545.53618 186.56567,545.77233 C 187.22908,546.00851 188.39226,546.37242 189.15942,546.58483 C 189.92657,546.79726 190.75841,547.09975 191.00317,547.24108 C 191.24793,547.38239 191.77482,547.57414 192.15942,547.67858 C 192.83272,547.86148 195.11214,548.64739 196.84692,549.27233 C 197.30528,549.43745 198.07807,549.62186 198.56567,549.70983 C 199.05328,549.7978 199.67014,550.02239 199.94067,550.17858 C 200.49696,550.49975 200.57562,550.49672 205.94067,552.08483 C 216.6667,555.25984 216.19902,555.15026 222.65942,556.08483 C 226.04251,556.57422 228.90902,557.04583 229.03442,557.11608 C 229.15981,557.18633 230.03295,557.12562 230.97192,556.99108 C 232.70592,556.74262 235.04761,556.54595 237.00317,556.45983 C 237.59718,556.43366 238.7533,556.33725 239.59692,556.24108 C 243.71179,555.77193 244.45255,555.67912 245.09692,555.70983 C 245.47889,555.72803 246.9732,555.46809 248.40942,555.11608 C 249.84565,554.76405 251.35042,554.42871 251.75317,554.36608 C 252.15592,554.30342 253.19765,554.08531 254.06567,553.89733 C 254.93369,553.70934 256.80233,553.34138 258.22192,553.05358 C 259.6415,552.76581 261.90971,552.27354 263.28442,551.95983 C 265.80612,551.38441 268.48039,550.83771 269.62817,550.67858 C 269.97087,550.63104 270.84477,550.45539 271.56567,550.27233 C 272.28658,550.08924 273.23059,549.88581 273.69067,549.83483 C 274.15076,549.78384 277.83772,548.85584 281.84692,547.77233 C 285.85613,546.68881 289.7368,545.7213 290.47192,545.61608 C 291.20705,545.51088 294.43011,544.67311 297.65942,543.77233 C 300.88874,542.87157 304.49629,541.97545 305.65942,541.77233 C 306.82256,541.5692 308.47952,541.20417 309.34692,540.95983 C 310.21431,540.71551 311.20339,540.51267 311.53442,540.49108 C 311.86541,540.46947 313.08358,540.2095 314.25317,539.92858 C 315.42276,539.64766 317.71255,539.12062 319.34692,538.77233 C 326.75709,537.19309 329.65739,536.32543 332.87817,534.70983 C 333.22457,534.53607 334.17676,534.16753 334.97192,533.86608 C 335.76708,533.56461 337.01108,533.05091 337.75317,532.74108 C 338.49525,532.43128 339.5698,532.03586 340.12817,531.86608 C 340.68655,531.69629 341.372,531.45337 341.65942,531.30358 C 342.56905,530.8295 344.33516,530.21055 348.37817,528.99108 C 352.79277,527.65952 371.84246,522.52325 379.22192,520.67858 C 383.25463,519.67049 384.31119,519.33959 385.62817,518.58483 C 386.49658,518.08713 387.52523,517.53433 387.90942,517.36608 C 388.29364,517.19785 389.08936,516.76749 389.69067,516.39733 C 390.29198,516.02719 390.9376,515.65933 391.12817,515.58483 C 391.31874,515.51029 391.87703,515.21098 392.34692,514.92858 C 392.81683,514.64619 393.50557,514.23868 393.87817,514.02233 C 394.25075,513.80597 395.85055,512.4725 397.44067,511.05358 C 399.0308,509.63468 400.41145,508.41813 400.53442,508.36608 C 400.65738,508.31403 401.22249,507.86918 401.78442,507.36608 C 402.34636,506.86301 403.21272,506.17762 403.69067,505.86608 C 404.16859,505.55453 404.57848,505.23252 404.62817,505.14733 C 404.67785,505.06216 405.30908,504.61708 406.00317,504.14733 C 406.69729,503.67761 407.53734,503.07025 407.87817,502.80358 C 408.34929,502.43495 408.72352,502.3516 409.40942,502.42858 C 410.50993,502.55212 416.95294,500.82523 418.03442,500.11608 C 418.43355,499.85436 419.00523,499.58902 419.31567,499.52233 C 419.62612,499.45563 420.27424,499.17463 420.75317,498.89733 C 421.23211,498.62002 421.91496,498.24417 422.28442,498.08483 C 423.14899,497.71197 426.45885,494.75906 427.50317,493.42858 C 429.95044,490.31076 430.25184,489.85804 431.00317,487.95983 C 432.05402,485.30493 432.08469,485.03079 431.84692,483.08483 C 431.61399,481.17828 430.31843,476.44111 429.97192,476.24108 C 429.85308,476.17247 429.68098,475.84919 429.59692,475.49108 C 429.37186,474.53243 428.65744,473.34115 427.75317,472.49108 C 427.31451,472.07873 426.75988,471.50516 426.53442,471.20983 C 425.87022,470.33974 421.75975,468.0626 419.37817,467.24108 C 415.82747,466.01626 415.36647,465.86748 414.59692,465.83483 C 414.17835,465.81709 413.69041,465.72421 413.50317,465.61608 C 413.31594,465.50798 412.64995,465.34404 412.03442,465.24108 C 411.41888,465.13809 410.50142,464.96212 410.00317,464.86608 C 409.50493,464.77005 408.97972,464.72416 408.84692,464.74108 C 408.7141,464.75801 408.25197,464.68159 407.81567,464.58483 C 407.37938,464.48805 406.91609,464.41364 406.78442,464.42858 C 406.65275,464.44353 406.23672,464.38762 405.84692,464.30358 C 405.74948,464.28257 405.60938,464.27579 405.47192,464.27233 z"
       id="path3675"
       transform="matrix(0.9733511,0,0,1,7.511481,6)" />
    <path
       style="fill:#ffffff"
       d="M -195.9457,537.57748 C -195.89557,537.49065 -195.76654,537.41696 -195.65898,537.41374 C -195.43592,537.40704 -191.86041,535.39849 -190.63385,534.59087 C -189.70441,533.97888 -186.78411,532.72572 -185.74383,532.49247 C -185.36008,532.40642 -184.75645,532.15091 -184.40243,531.92466 C -184.04841,531.69841 -183.53033,531.44384 -183.25114,531.35894 C -182.97195,531.27405 -181.93568,530.86564 -180.94833,530.45136 C -179.96097,530.03708 -177.99451,529.24069 -176.57841,528.68158 C -175.16231,528.12249 -173.21227,527.34049 -172.24499,526.94379 C -171.27771,526.54709 -169.44859,525.82009 -168.18028,525.32822 C -166.91197,524.83635 -165.19696,524.14557 -164.36912,523.79313 C -163.5413,523.4407 -162.11296,522.88476 -161.19504,522.55773 C -160.27712,522.23069 -159.26934,521.82089 -158.95552,521.64702 C -158.64169,521.47316 -157.80257,521.11345 -157.0908,520.84767 C -156.37903,520.58188 -154.84385,519.97434 -153.67929,519.49756 C -152.51473,519.02078 -151.10913,518.45672 -150.55573,518.24411 C -150.00233,518.03149 -148.1608,517.283 -146.46345,516.58079 C -144.7661,515.87858 -142.92457,515.13008 -142.37117,514.91747 C -141.15733,514.45111 -137.61501,513.00679 -135.25431,512.0157 C -134.30847,511.61861 -133.13765,511.17055 -132.65248,511.02001 C -132.16732,510.86948 -131.42002,510.59624 -130.99182,510.41282 C -130.56362,510.22939 -129.82444,509.95147 -129.3492,509.79521 C -128.87395,509.63894 -128.17915,509.31705 -127.8052,509.07989 C -127.43126,508.84275 -127.02046,508.64557 -126.89231,508.64172 C -126.76416,508.63788 -125.69742,508.23123 -124.52176,507.73806 C -123.34611,507.24489 -121.93158,506.66769 -121.37837,506.45541 C -120.82517,506.24313 -119.38436,505.6656 -118.17658,505.172 C -116.96879,504.67841 -115.49393,504.08638 -114.8991,503.85637 C -114.30427,503.62636 -113.58047,503.32338 -113.29066,503.18309 C -113.00085,503.04281 -112.3172,502.77323 -111.77143,502.584 C -110.7937,502.24503 -109.72423,501.8159 -107.68123,500.9428 C -107.10953,500.69848 -106.07204,500.29643 -105.37571,500.04936 C -104.67937,499.80227 -103.63994,499.39685 -103.06584,499.14838 C -102.49175,498.89992 -101.50532,498.49913 -100.87378,498.25772 C -100.24224,498.01631 -99.205004,497.61469 -98.568814,497.36523 C -97.932614,497.11576 -96.894714,496.71299 -96.262374,496.47019 C -95.630024,496.22738 -94.707134,495.84946 -94.211534,495.63039 C -93.715924,495.41132 -92.793044,495.03339 -92.160694,494.79059 C -91.528344,494.54778 -90.490444,494.14501 -89.854254,493.89555 C -89.218054,493.64608 -88.182414,493.24722 -87.552824,493.0092 C -86.923224,492.77116 -85.881564,492.36188 -85.238024,492.09968 C -84.594474,491.83748 -83.554534,491.43118 -82.927054,491.1968 C -82.299564,490.96242 -81.258404,490.55399 -80.613354,490.28919 C -79.968294,490.02438 -78.990244,489.64732 -78.439904,489.45126 C -77.889544,489.25519 -76.649014,488.76301 -75.683164,488.3575 C -74.717304,487.95199 -73.439814,487.43117 -72.844304,487.20012 C -69.783634,486.01262 -67.690244,485.16965 -66.726724,484.73669 C -66.351914,484.56828 -65.057024,484.02657 -63.849204,483.53291 C -62.641374,483.03923 -60.915604,482.31687 -60.014164,481.92766 C -59.112724,481.53845 -56.220014,480.32005 -53.585934,479.22012 C -49.063954,477.33185 -44.750344,475.52007 -29.220054,468.98606 C -16.825954,463.77154 -15.440934,463.17708 -14.974334,462.87178 C -14.717234,462.70355 -13.832324,462.23004 -13.007874,461.81955 C -12.183414,461.40905 -11.483134,461.02863 -11.451684,460.97415 C -11.420234,460.91967 -10.693984,460.5336 -9.8378038,460.11623 C -8.9816238,459.69885 -8.2553838,459.31279 -8.2239338,459.25831 C -8.1924738,459.20383 -7.4662338,458.81777 -6.6100538,458.40039 C -5.7538738,457.98301 -5.0281438,457.59784 -4.9973138,457.54445 C -4.9665038,457.49108 -3.9579538,456.96478 -2.7561238,456.37494 C -1.5542838,455.7851 -0.54466383,455.25694 -0.51253383,455.20129 C -0.48040383,455.14563 -0.037523831,454.90165 0.47163617,454.6591 C 0.98078617,454.41656 1.4241762,454.17168 1.4569362,454.11494 C 1.4897162,454.05818 2.2170262,453.67025 3.0732062,453.25288 C 3.9293862,452.8355 4.6556362,452.44944 4.6870862,452.39496 C 4.7185362,452.34048 5.4447862,451.95441 6.3009662,451.53704 C 7.1571462,451.11966 7.8833862,450.7336 7.9148362,450.67912 C 7.9462962,450.62464 8.6725362,450.23857 9.5287162,449.8212 C 10.384896,449.40382 11.111146,449.01776 11.142596,448.96328 C 11.174046,448.9088 11.900296,448.52274 12.756476,448.10536 C 13.612646,447.68798 14.338896,447.30192 14.370346,447.24744 C 14.401806,447.19296 15.128046,446.8069 15.984226,446.38952 C 16.840406,445.97215 17.566646,445.58608 17.598106,445.5316 C 17.629556,445.47712 18.355806,445.09106 19.211976,444.67368 C 20.068156,444.25631 20.793576,443.87167 20.824026,443.81894 C 20.854476,443.7662 26.780446,440.8094 33.992856,437.24826 C 45.042766,431.79236 47.351506,430.72357 48.664306,430.4564 C 49.521186,430.282 51.002006,429.97184 51.955006,429.76714 C 52.908006,429.56242 54.139736,429.38126 54.692186,429.36454 C 55.244636,429.34782 56.220626,429.2112 56.861066,429.06094 C 57.501506,428.91068 58.424176,428.79046 58.911466,428.79377 C 60.693006,428.80591 70.908186,426.28584 72.773266,425.37409 C 74.245856,424.65422 75.091296,424.30536 77.732396,423.32788 C 78.671256,422.98041 79.746526,422.5276 80.121876,422.32166 C 80.497226,422.11571 81.911176,421.5063 83.263986,420.9674 C 84.616796,420.4285 86.054966,419.82653 86.459926,419.62969 C 86.864886,419.43285 88.123326,419.0017 89.256446,418.67158 C 90.389566,418.34146 91.884786,417.79534 92.579156,417.45799 C 93.273526,417.12064 94.155266,416.77402 94.538586,416.68772 C 94.921896,416.60142 96.254676,416.06219 97.500326,415.48943 C 98.745986,414.91668 101.0871,413.90258 102.70283,413.23588 C 104.31855,412.56918 106.03621,411.79914 106.51983,411.52468 C 107.00348,411.25022 107.93044,410.85852 108.57977,410.65424 C 109.2291,410.44995 109.81791,410.18317 109.88822,410.06138 C 109.95853,409.93959 110.55013,409.61237 111.20289,409.33423 C 111.85564,409.05609 112.47468,408.68134 112.57853,408.50146 C 112.83207,408.06232 113.63295,407.56535 114.32513,407.41765 C 114.9881,407.27619 118.69452,404.88289 118.95835,404.42592 C 119.05778,404.25371 119.55608,403.91054 120.0657,403.66332 C 120.66497,403.37261 121.11699,403.0003 121.34537,402.60932 C 121.91653,401.63142 122.9982,400.46642 123.60592,400.1746 C 123.91647,400.02547 124.46982,399.62323 124.8356,399.28072 C 125.20135,398.93821 125.79983,398.45722 126.16552,398.21185 C 126.53121,397.96648 126.98268,397.50201 127.16877,397.17969 C 127.35486,396.85737 127.67896,396.46163 127.88899,396.30026 C 128.09901,396.13888 128.86009,395.44101 129.58026,394.74943 C 130.77663,393.60055 131.56502,392.95774 133.64053,391.43893 C 134.04248,391.14478 134.53373,390.62304 134.73216,390.2795 C 134.93172,389.93401 135.5923,389.30935 136.21032,388.88169 C 136.82487,388.45645 137.46524,387.8698 137.63338,387.57804 C 137.80153,387.28629 138.50181,386.61743 139.18957,386.09169 C 141.63531,384.22211 141.93553,383.96836 142.85735,382.99152 C 144.14182,381.63042 145.46574,380.44404 146.02613,380.15192 C 146.28432,380.01735 146.96638,379.47436 147.54182,378.94531 C 148.11727,378.41626 148.95018,377.68715 149.39277,377.32509 C 149.83536,376.96304 150.29265,376.50193 150.40899,376.30043 C 150.63925,375.90161 151.28599,375.38105 152.06513,374.96738 C 152.73924,374.60946 153.61171,373.84009 153.89826,373.35083 C 154.02816,373.12904 154.52749,372.72404 155.00786,372.45083 C 155.48825,372.17764 156.22101,371.58515 156.63622,371.1342 C 157.62183,370.06379 158.24577,369.53261 159.55081,368.65292 C 160.14075,368.25527 160.71773,367.76164 160.83299,367.55596 C 161.10679,367.06747 162.72588,365.72784 163.45143,365.38948 C 163.76436,365.24355 164.07031,365.03768 164.13133,364.93199 C 164.19235,364.8263 164.49327,364.57896 164.80007,364.38235 C 165.10686,364.18572 165.79039,363.58794 166.31902,363.05393 C 166.84766,362.51992 167.59762,361.91221 167.9856,361.70345 C 168.37358,361.49471 169.03039,360.97977 169.44516,360.55914 C 170.13458,359.86 172.17597,358.45871 173.20813,357.97608 C 173.44038,357.86747 173.75714,357.55911 173.91203,357.29083 C 174.06743,357.02166 175.32566,356.05799 176.71941,355.14066 C 178.10857,354.22635 179.33386,353.32465 179.44227,353.13688 C 179.63592,352.80147 179.9545,352.5657 181.94599,351.28398 C 182.4939,350.93135 183.22341,350.37828 183.56711,350.05495 C 183.91082,349.73163 184.48183,349.33472 184.83603,349.17295 C 185.19025,349.01119 185.53875,348.77726 185.61049,348.65311 C 185.68224,348.52897 186.3262,348.11094 187.04153,347.72417 C 187.75687,347.3374 188.41893,346.88801 188.5128,346.72555 C 188.75932,346.29887 190.14334,345.37422 190.72178,345.24974 C 190.99365,345.19123 191.31468,344.97261 191.43517,344.76391 C 191.6546,344.38386 193.8938,342.87317 196.42551,341.39716 C 198.18876,340.36919 198.36333,340.25792 199.37247,339.5192 C 199.84231,339.17526 201.15069,338.37027 202.27998,337.73033 C 203.9541,336.78165 204.94509,336.40139 207.64686,335.67095 C 211.04886,334.7512 212.62371,334.52488 213.78259,334.7892 C 214.14666,334.87224 215.20313,335.10839 216.13029,335.31396 C 217.05745,335.51954 218.38511,335.83545 219.08065,336.01598 C 222.05661,336.78842 222.32028,336.78207 225.81662,335.85344 C 227.62181,335.37398 229.61108,334.72378 230.23719,334.40854 C 230.86329,334.09329 231.98583,333.58368 232.73169,333.27606 C 233.47756,332.96844 234.4274,332.52233 234.84244,332.2847 C 236.83348,331.1448 242.37707,329.56365 245.06583,329.3688 C 247.46585,329.19487 250.32198,329.38345 251.74623,329.80989 C 252.32321,329.98264 253.05651,330.14241 253.37576,330.1649 C 253.69502,330.18741 254.18619,330.33859 254.46726,330.50086 C 254.74832,330.66313 255.52258,330.90082 256.18784,331.02906 C 257.26564,331.23682 257.63301,331.41321 259.56029,332.64833 C 263.56405,335.21418 263.37242,335.12208 264.26945,334.91149 C 264.71162,334.80769 265.68778,334.40847 266.43868,334.02433 C 267.18961,333.6402 267.91641,333.32254 268.05379,333.31842 C 268.19118,333.3143 269.16672,332.88548 270.22169,332.3655 C 273.13594,330.92906 279.35167,328.98178 281.50616,328.83026 C 282.27565,328.77615 283.39196,328.65635 283.98685,328.56406 C 284.58174,328.47176 285.81143,328.43426 286.7195,328.48072 C 287.62757,328.52718 288.53877,328.53535 288.74439,328.49888 C 289.19038,328.41976 292.76228,328.67338 292.98107,328.7997 C 293.06503,328.84817 293.53345,328.91727 294.02202,328.95327 C 294.51057,328.98925 295.02275,329.08361 295.16018,329.16296 C 295.29761,329.24231 295.48921,329.26464 295.58595,329.21258 C 296.29493,328.83112 302.6939,331.66538 304.2208,333.03718 C 304.6751,333.44534 305.41754,334.09613 305.87067,334.48341 C 307.74687,336.08689 309.51797,337.94435 310.2599,339.08665 C 310.58559,339.5881 310.94591,340.0557 311.0606,340.12577 C 311.27197,340.2549 312.0598,341.28306 312.94104,342.57984 C 313.20714,342.97141 313.66624,343.83269 313.96128,344.4938 C 314.25631,345.15491 314.58183,345.74456 314.68464,345.80412 C 314.78747,345.86369 314.97417,346.15059 315.09954,346.44167 C 315.22492,346.73276 315.57112,347.24644 315.86887,347.58316 C 316.16663,347.91989 316.4979,348.47949 316.60503,348.82672 C 317.04242,350.24434 318.63012,351.24357 320.0008,350.96388 C 320.39206,350.88405 320.9046,350.83415 321.1398,350.85299 C 321.37501,350.87184 321.99858,350.83797 322.52553,350.77773 C 323.56818,350.65853 330.74476,351.05 331.08153,351.24443 C 331.19544,351.3102 331.56779,351.32383 331.90898,351.27473 C 332.25018,351.22564 332.61821,351.23679 332.72685,351.29951 C 332.83551,351.36225 333.32411,351.443 333.81268,351.47899 C 334.30123,351.51498 334.76673,351.58239 334.84712,351.6288 C 334.9275,351.67521 335.565,351.75641 336.2638,351.80924 C 337.92115,351.93454 339.90926,352.53834 343.76826,354.08836 C 346.30903,355.1089 350.43404,357.94381 351.77192,359.58887 C 352.1657,360.07306 352.83967,360.73655 353.26963,361.06329 C 353.69961,361.39004 354.09758,361.77289 354.15404,361.9141 C 354.21051,362.0553 354.58264,362.51478 354.98102,362.93517 C 355.3794,363.35556 355.8813,363.99609 356.09634,364.35857 C 356.31139,364.72106 356.56135,365.06037 356.65183,365.11261 C 356.74232,365.16485 357.05222,365.5382 357.3405,365.94229 C 357.62879,366.34637 358.14032,366.98434 358.47724,367.36 C 358.81416,367.73566 359.24944,368.28948 359.44453,368.59071 C 360.24506,369.82677 361.43131,371.41727 361.81923,371.77466 C 362.04679,371.9843 362.41995,372.51144 362.64851,372.94609 C 362.87707,373.38074 363.14583,373.78357 363.24575,373.84126 C 363.41459,373.93874 364.42077,375.30542 365.55995,376.98461 C 365.82584,377.37653 366.36758,377.98774 366.76381,378.34284 C 367.16004,378.69793 367.5872,379.24575 367.71303,379.5602 C 367.83888,379.87465 368.00798,380.17012 368.08883,380.2168 C 368.16967,380.26347 368.47168,380.63227 368.75997,381.03635 C 369.37738,381.90176 370.33704,382.99825 371.41293,384.06758 C 371.83844,384.4905 372.23075,384.94438 372.28473,385.0762 C 372.33871,385.20802 372.54155,385.47698 372.73548,385.67387 C 372.9294,385.87076 373.43398,386.38173 373.85677,386.80937 C 374.27955,387.237 374.66947,387.69502 374.72326,387.82718 C 374.77704,387.95935 375.04492,388.26033 375.31854,388.49603 C 375.59216,388.73173 375.99345,389.17007 376.21028,389.47012 C 376.42711,389.77016 376.86771,390.2335 377.18939,390.49977 C 377.51109,390.76604 378.33245,391.61016 379.01463,392.3756 C 379.69683,393.14105 380.60268,394.11412 381.02764,394.53799 C 381.4526,394.96185 381.8443,395.41679 381.89808,395.54895 C 381.95187,395.68112 382.21974,395.9821 382.49337,396.2178 C 382.76699,396.4535 383.16742,396.89331 383.38322,397.19514 C 383.59901,397.49698 384.17763,398.09376 384.66902,398.52133 C 385.16042,398.94889 385.99916,399.94338 386.5329,400.73131 C 387.06665,401.51925 387.63646,402.24078 387.79916,402.33472 C 387.96188,402.42866 388.32036,402.83697 388.5958,403.24208 C 388.87125,403.64719 389.16158,404.01615 389.24098,404.06199 C 389.32039,404.10784 389.601,404.4625 389.86454,404.85011 C 390.12808,405.23772 390.61167,405.77645 390.93917,406.04728 C 391.26667,406.31811 391.73549,406.84915 391.98097,407.22736 C 392.22645,407.60558 392.53986,407.98001 392.67745,408.05944 C 392.81505,408.13888 393.03221,408.55409 393.16007,408.98214 C 393.40319,409.79609 394.35693,411.48992 394.67579,411.67401 C 394.77765,411.73282 395.09835,412.21999 395.38844,412.7566 C 395.67854,413.2932 396.05588,413.81307 396.22698,413.91186 C 396.60064,414.12759 398.56004,417.1369 399.22221,418.51202 C 399.48212,419.05177 399.7371,419.51781 399.78883,419.54768 C 400.28711,419.83536 402.73766,427.62527 402.67993,428.73801 C 402.66207,429.08207 402.68569,430.09034 402.73242,430.9786 C 402.82716,432.77957 402.723,434.47863 402.49349,434.87614 C 402.41035,435.02015 402.32875,435.43047 402.31218,435.78796 C 402.26268,436.85493 401.74358,438.8736 401.15599,440.28404 C 400.85288,441.01166 400.45302,441.98387 400.26743,442.44452 C 400.04287,443.00182 399.60856,443.61187 398.96935,444.26775 C 397.94822,445.31553 397.12088,446.34752 395.36667,448.76156 C 394.76831,449.58499 393.94294,450.66886 393.53253,451.17015 C 393.12213,451.67145 392.4116,452.58082 391.9536,453.19098 C 391.49558,453.80113 391.0334,454.34742 390.92651,454.40493 C 390.81961,454.46244 390.17852,455.4404 389.50186,456.57817 C 388.5581,458.16503 388.0898,458.79137 387.49113,459.26733 C 386.8801,459.75316 386.4592,460.32348 385.55186,461.89503 L 384.39301,463.90222 L 384.98504,464.24402 C 385.32242,464.43881 386.11674,464.6047 386.8317,464.6297 C 389.49478,464.72282 390.54697,464.71866 391.36398,464.6118 C 392.45629,464.46895 393.73332,464.3732 393.82678,464.42715 C 393.86695,464.45034 394.47193,464.39738 395.17115,464.30944 C 395.87039,464.22151 396.52389,464.19613 396.62338,464.25304 C 396.72287,464.30996 397.08133,464.27294 397.41995,464.17078 C 397.75857,464.06863 398.50616,464.04051 399.08128,464.10831 C 399.65639,464.1761 400.63741,464.18067 401.26131,464.11846 C 401.88521,464.05624 402.46572,464.04578 402.55132,464.0952 C 402.63693,464.14462 403.1744,464.05382 403.74572,463.89343 C 404.31703,463.73303 405.1034,463.67057 405.49317,463.75461 C 405.88296,463.83866 406.30961,463.89519 406.44128,463.88024 C 406.57295,463.86529 407.03765,463.93224 407.47394,464.02902 C 407.91023,464.1258 408.37586,464.19113 408.50868,464.1742 C 408.64149,464.15726 409.15782,464.22197 409.65606,464.318 C 410.15431,464.41402 411.06558,464.57684 411.68112,464.67983 C 412.29665,464.78281 412.95346,464.95551 413.14069,465.06361 C 413.32792,465.17171 413.82359,465.27468 414.24216,465.29242 C 415.0117,465.32505 415.48609,465.46313 419.03679,466.68795 C 421.41838,467.50949 425.52669,469.79123 426.19089,470.66132 C 426.41634,470.95663 426.95967,471.53563 427.39833,471.94798 C 428.30261,472.79805 429.03128,473.96506 429.25634,474.92371 C 429.3404,475.2818 429.50643,475.63093 429.62527,475.69954 C 429.97178,475.8996 431.27335,480.63143 431.50628,482.53798 C 431.74405,484.48397 431.69461,484.76377 430.64376,487.41867 C 429.89243,489.31689 429.60717,489.7642 427.1599,492.88202 C 426.11559,494.21248 422.803,497.16837 421.93843,497.54123 C 421.56898,497.70058 420.87484,498.05785 420.3959,498.33516 C 419.91697,498.61249 419.27113,498.89397 418.96068,498.96067 C 418.65025,499.02737 418.06968,499.29608 417.67055,499.5578 C 416.58908,500.26693 410.15002,501.99499 409.04951,501.87145 C 408.36363,501.79446 407.99879,501.88642 407.52767,502.25505 C 407.18684,502.52172 406.34006,503.12422 405.64594,503.59394 C 404.95184,504.06367 404.34326,504.51767 404.29358,504.60284 C 404.24388,504.68802 403.81219,505.0126 403.33427,505.32415 C 402.85633,505.63568 402.00554,506.30218 401.4436,506.80525 C 400.88167,507.30832 400.32131,507.76251 400.19835,507.81456 C 400.07539,507.86661 398.67377,509.07012 397.08364,510.48902 C 395.49352,511.90792 393.88765,513.24585 393.51507,513.46221 C 393.14247,513.67855 392.45317,514.08662 391.98326,514.36901 C 391.51338,514.6514 390.97299,514.94343 390.78242,515.01797 C 390.59183,515.09249 389.94393,515.45633 389.34262,515.82647 C 388.74131,516.19662 387.93498,516.63712 387.55076,516.80535 C 387.16656,516.97359 386.14169,517.51844 385.27328,518.01614 C 383.9563,518.77092 382.89222,519.12155 378.85951,520.12964 C 371.48006,521.97429 352.4463,527.10024 348.0317,528.4318 C 343.98869,529.65128 342.21441,530.258 341.30478,530.73208 C 341.01735,530.88189 340.32532,531.14336 339.76694,531.31315 C 339.20856,531.48293 338.14453,531.87532 337.40245,532.18512 C 336.66037,532.49493 335.40263,532.99506 334.60747,533.29653 C 333.81232,533.598 332.87831,533.98682 332.53191,534.16058 C 329.31114,535.77617 326.41045,536.64789 319.00028,538.22713 C 317.3659,538.57545 315.07173,539.09028 313.90214,539.3712 C 312.73254,539.65212 311.50477,539.89963 311.17378,539.92124 C 310.84276,539.94284 309.86226,540.16041 308.99487,540.40473 C 308.12747,540.64905 306.46614,541.01516 305.303,541.21829 C 304.13987,541.42143 300.54605,542.32463 297.31673,543.22539 C 294.08743,544.12617 290.8438,544.94924 290.10867,545.05444 C 289.37355,545.15965 285.49182,546.13226 281.48261,547.21578 C 277.4734,548.29931 273.81671,549.22755 273.35662,549.27854 C 272.89654,549.32953 271.93027,549.52104 271.20936,549.70413 C 270.48845,549.88721 269.61823,550.07589 269.27553,550.12343 C 268.12776,550.28259 265.4691,550.81484 262.9474,551.39026 C 261.5727,551.70395 259.28648,552.19606 257.8669,552.48383 C 256.44732,552.77161 254.57564,553.16087 253.70762,553.34886 C 252.83959,553.53684 251.79986,553.74192 251.39711,553.80458 C 250.99437,553.86724 249.48977,554.20654 248.05354,554.55857 C 246.61733,554.91059 245.12972,555.18372 244.74775,555.16552 C 244.10337,555.1348 243.37739,555.20167 239.26252,555.67082 C 238.4189,555.76699 237.24266,555.8671 236.64865,555.89327 C 234.69309,555.97941 232.36636,556.19044 230.63236,556.4389 C 229.6934,556.57343 228.82255,556.62603 228.69716,556.55578 C 228.57175,556.48552 225.70117,556.02764 222.31808,555.53825 C 215.85768,554.60368 216.33331,554.71741 205.60728,551.5424 C 200.24223,549.95429 200.16283,549.92869 199.60654,549.60752 C 199.33602,549.45134 198.71574,549.25158 198.22813,549.16361 C 197.74053,549.07565 196.96655,548.86859 196.50819,548.70347 C 194.77341,548.07853 192.47443,547.3073 191.80113,547.1244 C 191.41653,547.01993 190.90159,546.81883 190.65683,546.67752 C 190.41207,546.5362 189.58414,546.24679 188.81699,546.03436 C 188.04984,545.82194 186.87938,545.45492 186.21597,545.21874 C 185.55255,544.98258 184.6686,544.68279 184.25163,544.55255 C 183.83465,544.42232 182.9919,544.13835 182.37884,543.92153 C 181.17946,543.49734 180.67725,543.33289 178.05155,542.50457 C 177.1148,542.20905 175.53951,541.71177 174.55089,541.39952 C 170.03148,539.97199 169.27967,539.74222 168.27561,539.48181 C 167.68702,539.32914 166.51231,539.09705 165.66513,538.96605 C 164.25376,538.74781 159.95911,538.06933 158.66493,537.86015 C 158.08611,537.7666 155.17865,538.57088 151.116,539.94841 C 149.73908,540.41528 147.74401,541.08099 146.68252,541.42775 C 145.62102,541.77453 143.93535,542.32534 142.9366,542.65181 C 141.93784,542.97826 138.07147,544.55532 134.34467,546.15641 C 130.61787,547.7575 127.16905,549.18911 126.68065,549.33777 C 126.19225,549.48644 125.38617,549.82641 124.88939,550.09328 C 124.39261,550.36015 122.23106,551.32692 120.08593,552.24166 C 117.94082,553.1564 114.22795,554.86522 111.83514,556.03903 C 109.44234,557.21287 106.27042,558.754 104.78645,559.46379 C 101.54621,561.01364 101.75858,560.91065 98.103986,562.70451 C 96.491406,563.49606 94.588666,564.42427 93.875696,564.76724 C 93.162736,565.11019 91.897966,565.73902 91.065116,566.16466 C 90.232256,566.59026 88.302466,567.52648 86.776686,568.2451 C 85.250896,568.96373 83.635456,569.74245 83.186806,569.97558 C 82.738146,570.20871 81.840426,570.65204 81.191876,570.96077 C 80.085696,571.48729 78.698736,572.40166 77.402276,573.45908 C 77.093116,573.71123 76.193396,574.39982 75.402896,574.98927 C 74.612396,575.57873 73.413966,576.49754 72.739716,577.03107 C 72.065486,577.56461 71.241296,578.19614 70.908196,578.43447 C 69.921866,579.14021 67.692066,580.8326 66.555636,581.73801 C 65.973596,582.20174 64.922836,583.00446 64.220616,583.52185 C 63.518376,584.03922 62.535496,584.78047 62.036416,585.16905 C 61.537326,585.55763 60.635596,586.24505 60.032556,586.69666 C 59.429526,587.14826 58.528916,587.83634 58.031196,588.22571 C 57.533486,588.61508 56.624846,589.29852 56.011956,589.74444 C 55.399076,590.19036 54.351596,590.99498 53.684226,591.53248 C 53.016876,592.06999 51.820926,592.99024 51.026566,593.57746 C 50.232226,594.1647 48.351776,595.59578 46.847796,596.75763 C 45.343826,597.9195 43.463106,599.35042 42.668426,599.93746 C 41.873766,600.52452 40.969136,601.21026 40.658146,601.46136 C 40.347156,601.71246 39.442436,602.39816 38.647666,602.98514 C 36.995196,604.20559 34.417496,606.39199 33.390526,607.44427 C 33.006506,607.83776 31.991546,608.81216 31.135096,609.60962 C 30.278626,610.40707 28.812016,611.8254 27.875946,612.76146 C 26.939886,613.69752 25.573546,615.02273 24.839616,615.70637 C 24.105696,616.39001 22.825416,617.61391 21.994566,618.42616 C 21.163706,619.23839 19.849986,620.49332 19.075196,621.21489 C 17.638156,622.55318 9.8083962,630.10402 4.3471162,635.41833 C 2.6805762,637.04002 0.35284617,639.2699 -0.82559383,640.37362 C -3.8593038,643.21499 -6.6391538,645.99052 -6.8946638,646.43331 L -7.1125538,646.81086 L -101.5747,592.27311 C -160.48794,558.25954 -196.00256,537.67595 -195.9457,537.57748 z"
       id="path3673" />
    <image
       y="134.0406"
       x="97.953461"
       id="image4021"
       height="430.29605"
       width="519.61011"
       sodipodi:absref="C:\Documents and Settings\chill\My Documents\+Designs\+Sleep\Hand.png"
       xlink:href="Hand.png"
       style="opacity:0.57560975"
       transform="matrix(0.8660254,0.5,-0.5,0.8660254,0,0)" />
    <g
       id="g3352"
       transform="translate(8.9974768,-544.35529)">
      <rect
         y="636.3725"
         x="-17.078697"
         height="13.988994"
         width="746.99982"
         id="rect2450"
         style="fill:#2a7fff;fill-opacity:1;fill-rule:evenodd;stroke:none;stroke-width:0.550717;stroke-linecap:round;stroke-linejoin:round;marker:none;marker-start:none;marker-mid:none;marker-end:none;stroke-miterlimit:4;stroke-dasharray:none;stroke-dashoffset:0;stroke-opacity:1;visibility:visible;display:inline;overflow:visible;enable-background:accumulate" />
      <rect
         y="646.79803"
         x="-17.078697"
         height="21.157888"
         width="746.98486"
         id="rect2452"
         style="fill:#003380;fill-opacity:1;fill-rule:evenodd;stroke:none;stroke-width:1.27825773;stroke-linecap:round;stroke-linejoin:round;marker:none;marker-start:none;marker-mid:none;marker-end:none;stroke-miterlimit:4;stroke-dasharray:none;stroke-dashoffset:0;stroke-opacity:1;visibility:visible;display:inline;overflow:visible;enable-background:accumulate" />
      <rect
         y="640.54626"
         x="-13.499909"
         height="20.417564"
         width="738.07123"
         id="rect3342"
         style="fill:url(#linearGradient4085);fill-opacity:1;fill-rule:evenodd;stroke:none;stroke-width:0.550717;stroke-linecap:round;stroke-linejoin:round;marker:none;marker-start:none;marker-mid:none;marker-end:none;stroke-miterlimit:4;stroke-dasharray:none;stroke-dashoffset:0;stroke-opacity:1;visibility:visible;display:inline;overflow:visible;enable-background:accumulate" />
      <g
         transform="translate(-217.18279,-250.2653)"
         style="fill:#1c2422;filter:url(#filter3280)"
         id="g3258">
        <flowRoot
           xml:space="preserve"
           id="flowRoot3242"
           style="font-size:3.0212543px;font-style:normal;font-variant:normal;font-weight:bold;font-stretch:normal;text-align:start;line-height:125%;writing-mode:lr-tb;text-anchor:start;fill:#1c2422;fill-opacity:1;stroke:none;stroke-width:1px;stroke-linecap:butt;stroke-linejoin:miter;stroke-opacity:1;font-family:Century Gothic;-inkscape-font-specification:Century Gothic Bold"
           transform="matrix(32.970908,0,0,32.970908,6382.2022,-14883.395)"><flowRegion
             id="flowRegion3244"><rect
               id="rect3246"
               width="271.42856"
               height="120"
               x="-177.14285"
               y="476.64789"
               style="font-size:3.0212543px;font-style:normal;font-variant:normal;font-weight:bold;font-stretch:normal;text-align:start;line-height:125%;writing-mode:lr-tb;text-anchor:start;fill:#1c2422;font-family:Century Gothic;-inkscape-font-specification:Century Gothic Bold" /></flowRegion><flowPara
             id="flowPara3248">counter</flowPara></flowRoot>        <flowRoot
           xml:space="preserve"
           id="flowRoot3250"
           style="font-size:3.0212543px;font-style:normal;font-variant:normal;font-weight:bold;font-stretch:normal;text-align:start;line-height:125%;writing-mode:lr-tb;text-anchor:start;fill:#1c2422;fill-opacity:1;stroke:none;stroke-width:1px;stroke-linecap:butt;stroke-linejoin:miter;stroke-opacity:1;font-family:Century Gothic;-inkscape-font-specification:Century Gothic Bold"
           transform="matrix(32.970908,0,0,32.970908,7256.6676,-12810.243)"><flowRegion
             id="flowRegion3252"><rect
               id="rect3254"
               width="360"
               height="154.28572"
               x="-212.85715"
               y="413.79074"
               style="font-size:3.0212543px;font-style:normal;font-variant:normal;font-weight:bold;font-stretch:normal;text-align:start;line-height:125%;writing-mode:lr-tb;text-anchor:start;fill:#1c2422;fill-opacity:1;font-family:Century Gothic;-inkscape-font-specification:Century Gothic Bold" /></flowRegion><flowPara
             id="flowPara3256">sheep</flowPara></flowRoot>      </g>
      <flowRoot
         transform="matrix(32.970908,0,0,32.970908,6164.9368,-15133.701)"
         style="font-size:3.0212543px;font-style:normal;font-variant:normal;font-weight:bold;font-stretch:normal;text-align:start;line-height:125%;writing-mode:lr-tb;text-anchor:start;fill:#80b3ff;fill-opacity:1;stroke:none;stroke-width:1px;stroke-linecap:butt;stroke-linejoin:miter;stroke-opacity:1;font-family:Century Gothic;-inkscape-font-specification:Century Gothic Bold"
         id="flowRoot2427"
         xml:space="preserve"><flowRegion
           id="flowRegion2429"><rect
             style="font-size:3.0212543px;font-style:normal;font-variant:normal;font-weight:bold;font-stretch:normal;text-align:start;line-height:125%;writing-mode:lr-tb;text-anchor:start;fill:#80b3ff;font-family:Century Gothic;-inkscape-font-specification:Century Gothic Bold"
             y="476.64789"
             x="-177.14285"
             height="120"
             width="271.42856"
             id="rect2431" /></flowRegion><flowPara
           id="flowPara2433">counter</flowPara></flowRoot>      <flowRoot
         transform="matrix(32.970908,0,0,32.970908,7039.4022,-13060.549)"
         style="font-size:3.0212543px;font-style:normal;font-variant:normal;font-weight:bold;font-stretch:normal;text-align:start;line-height:125%;writing-mode:lr-tb;text-anchor:start;fill:#f1f9fc;fill-opacity:1;stroke:none;stroke-width:1px;stroke-linecap:butt;stroke-linejoin:miter;stroke-opacity:1;font-family:Century Gothic;-inkscape-font-specification:Century Gothic Bold"
         id="flowRoot2419"
         xml:space="preserve"><flowRegion
           id="flowRegion2421"><rect
             style="font-size:3.0212543px;font-style:normal;font-variant:normal;font-weight:bold;font-stretch:normal;text-align:start;line-height:125%;writing-mode:lr-tb;text-anchor:start;fill:#f1f9fc;fill-opacity:1;font-family:Century Gothic;-inkscape-font-specification:Century Gothic Bold"
             y="413.79074"
             x="-212.85715"
             height="154.28572"
             width="360"
             id="rect2423" /></flowRegion><flowPara
           id="flowPara2425">sheep</flowPara></flowRoot>      <rect
         y="646.87665"
         x="-17.034843"
         height="21.157888"
         width="746.98486"
         id="rect3284"
         style="opacity:0.73658537;fill:url(#linearGradient4087);fill-opacity:1;fill-rule:evenodd;stroke:none;stroke-width:1.27825773;stroke-linecap:round;stroke-linejoin:round;marker:none;marker-start:none;marker-mid:none;marker-end:none;stroke-miterlimit:4;stroke-dasharray:none;stroke-dashoffset:0;stroke-opacity:1;visibility:visible;display:inline;overflow:visible;enable-background:accumulate" />
      <path
         id="flowRoot3310"
         d="M 72.348214,596.01786 L 72.348214,646.79911 L 85.535714,646.79911 C 85.562875,641.92007 85.742097,638.65972 86.098214,637.20536 C 86.844016,634.12489 88.200007,631.7075 90.129464,629.92411 C 92.058924,628.14071 94.375554,627.23664 97.066964,627.23661 C 99.142154,627.23661 100.87523,627.76046 102.28572,628.83036 C 103.69622,629.9006 104.70212,631.53259 105.28571,633.70536 C 105.8693,635.87781 106.16071,640.01455 106.16071,646.14286 L 106.16071,646.79911 L 119.22321,646.79911 L 119.22321,634.39286 C 119.22321,628.29687 117.70993,623.66331 114.62946,620.51786 C 111.03036,616.88611 106.60114,615.08038 101.34822,615.08036 C 98.656794,615.08036 95.974684,615.64915 93.348214,616.76786 C 90.721754,617.88656 88.129865,619.56173 85.535714,621.79911 L 85.535714,596.01786 L 72.348214,596.01786 z M 579.41071,596.83036 L 579.41071,616.33036 L 572.59821,616.33036 L 572.59821,627.76786 L 579.41071,627.76786 L 579.41071,646.79911 L 592.62946,646.79911 L 592.62946,627.76786 L 600.50446,627.76786 L 600.50446,616.33036 L 592.62946,616.33036 L 592.62946,596.83036 L 579.41071,596.83036 z M 358.09821,614.95536 C 352.42359,614.95536 347.28019,616.20989 342.69196,618.67411 C 338.10373,621.13869 334.53471,624.51779 331.97321,628.83036 C 329.41137,633.14328 328.12946,637.86358 328.12946,642.98661 C 328.12946,644.28682 328.21638,645.55784 328.37946,646.79911 L 341.94196,646.79911 C 341.70651,645.65046 341.56686,644.45354 341.56696,643.17411 C 341.56663,638.53708 343.0964,634.73493 346.16071,631.76786 C 349.22503,628.80081 353.23084,627.33038 358.19196,627.33036 C 360.91569,627.33036 363.29025,627.7373 365.31696,628.58036 C 367.34368,629.42343 369.39769,630.93913 371.47321,633.11161 L 382.50446,627.01786 C 379.84536,623.15927 376.43749,620.20293 372.25446,618.11161 C 368.07144,616.02027 363.35114,614.95536 358.09821,614.95536 z M 419.37946,614.95536 C 412.47271,614.95536 406.35358,617.37519 401.03571,622.17411 C 394.97203,627.68652 391.94197,634.5616 391.94196,642.83036 C 391.94196,644.18958 392.02484,645.51115 392.19196,646.79911 L 405.56696,646.79911 C 405.30858,645.54403 405.16061,644.22116 405.16071,642.79911 C 405.16038,638.3243 406.54581,634.63733 409.28571,631.76786 C 412.02559,628.89807 415.4489,627.45538 419.56696,627.45536 C 423.78229,627.45536 427.23439,628.89945 429.94196,631.73661 C 432.64953,634.57409 434.00445,638.25966 434.00446,642.79911 C 434.00446,644.2165 433.86565,645.54475 433.59821,646.79911 L 447.16071,646.79911 C 447.34983,645.46987 447.44196,644.11617 447.44196,642.73661 C 447.44196,637.77548 446.2187,633.17314 443.75446,628.89286 C 441.28988,624.61258 437.86692,621.20224 433.47321,618.70536 C 429.07918,616.20847 424.37323,614.95536 419.37946,614.95536 z M 547.00446,614.95536 C 544.44295,614.95536 541.95252,615.46659 539.50446,616.45536 C 537.05637,617.44449 534.30124,619.20742 531.28571,621.73661 L 531.28571,616.33036 L 518.06696,616.33036 L 518.06696,646.79911 L 531.28571,646.79911 C 531.31521,641.99852 531.52093,638.7606 531.87946,637.23661 C 532.62526,634.05887 533.95036,631.56773 535.87946,629.76786 C 537.80892,627.96831 540.12556,627.08036 542.81696,627.08036 C 544.89248,627.08036 546.65646,627.619 548.06696,628.70536 C 549.47746,629.79142 550.43703,631.38016 551.00446,633.45536 C 551.57189,635.53055 551.87943,639.72626 551.87946,646.04911 L 551.87946,646.79911 L 565.00446,646.79911 L 565.00446,634.26786 C 565.00446,628.17187 563.45992,623.56812 560.37946,620.45536 C 556.71507,616.79097 552.25771,614.95536 547.00446,614.95536 z M 632.66071,614.95536 C 624.8133,614.95536 618.30267,617.62134 613.09821,622.95536 C 607.89375,628.28939 605.28571,635.00647 605.28571,643.08036 C 605.28571,644.35639 605.36836,645.59182 605.50446,646.79911 L 618.16071,646.79911 C 618.15155,646.74604 618.1382,646.69624 618.12946,646.64286 L 660.78571,646.64286 L 660.81696,644.11161 C 660.81696,635.35684 658.22509,628.28941 653.00446,622.95536 C 647.78385,617.62133 640.99412,614.95536 632.66071,614.95536 z M 691.47321,614.95536 C 689.04128,614.95536 686.79735,615.65581 684.75446,617.01786 C 682.71158,618.37956 681.08067,620.36015 679.84821,622.98661 L 679.84821,616.33036 L 668.47321,616.33036 L 668.47321,646.79911 L 681.62946,646.79911 L 681.59821,645.26786 C 681.59821,637.87479 682.28148,632.92206 683.69196,630.39286 C 685.10246,627.86366 686.8366,626.58067 688.87946,626.58036 C 689.88474,626.58069 691.16666,626.98975 692.72321,627.76786 L 696.87946,616.33036 C 694.9988,615.42267 693.192,614.95536 691.47321,614.95536 z M 43.504464,615.08036 C 38.478379,615.08036 34.355997,616.55081 31.129464,619.51786 C 27.903261,622.48491 26.285714,626.0536 26.285714,630.23661 C 26.285714,636.72166 30.568896,642.14275 39.129464,646.45536 L 39.816964,646.79911 L 60.129464,646.79911 C 59.799745,646.17382 59.427201,645.56692 59.004464,644.98661 C 57.091492,642.36015 53.596562,639.79705 48.473214,637.26786 L 43.598214,634.83036 C 41.490384,633.79277 40.164581,632.96138 39.629464,632.36161 C 39.094346,631.76154 38.848214,631.10634 38.848214,630.39286 C 38.848214,629.45253 39.255147,628.68148 40.098214,628.04911 C 40.94128,627.41706 42.106609,627.08035 43.598214,627.08036 C 46.321941,627.08036 49.352014,628.7418 52.691964,632.04911 L 60.910714,623.83036 C 58.802884,621.00937 56.254892,618.83847 53.223214,617.33036 C 50.191209,615.8226 46.941683,615.08038 43.504464,615.08036 z M 156.94196,615.08036 C 149.09455,615.08036 142.55266,617.7463 137.34821,623.08036 C 132.14375,628.41439 129.5357,635.10018 129.53571,643.17411 C 129.53571,644.41699 129.62404,645.62145 129.75446,646.79911 L 142.37946,646.79911 C 142.37604,646.77864 142.38282,646.75712 142.37946,646.73661 L 185.03571,646.73661 L 185.09821,644.20536 C 185.09821,635.45059 182.47507,628.41437 177.25446,623.08036 C 172.03385,617.74633 165.27535,615.08038 156.94196,615.08036 z M 220.75446,615.08036 C 212.90705,615.08036 206.36516,617.7463 201.16071,623.08036 C 195.95625,628.41439 193.34822,635.10018 193.34821,643.17411 C 193.34821,644.41699 193.43654,645.62145 193.56696,646.79911 L 206.19196,646.79911 C 206.18854,646.77864 206.19532,646.75712 206.19196,646.73661 L 248.84821,646.73661 L 248.91071,644.20536 C 248.91071,635.45059 246.28757,628.41437 241.06696,623.08036 C 235.84635,617.74633 229.08786,615.08038 220.75446,615.08036 z M 289.56696,615.08036 C 286.38889,615.08036 283.41782,615.66181 280.62946,616.86161 C 277.84078,618.06142 275.24783,619.86825 272.84821,622.26786 L 272.84821,616.42411 L 259.66071,616.42411 L 259.66071,646.79911 L 272.66071,646.79911 C 272.40937,645.54072 272.25446,644.22241 272.25446,642.79911 C 272.25446,638.19472 273.6231,634.46525 276.37946,631.61161 C 279.13583,628.75831 282.6027,627.33036 286.78571,627.33036 C 290.93609,627.33036 294.37414,628.77201 297.09821,631.67411 C 299.82194,634.57654 301.19196,638.32184 301.19196,642.86161 C 301.19196,644.25028 301.04115,645.56041 300.78571,646.79911 L 314.19196,646.79911 C 314.32747,645.56641 314.41071,644.28936 314.41071,642.98661 C 314.41071,634.81543 312.02317,628.11349 307.19196,622.89286 C 302.3604,617.67225 296.47369,615.08038 289.56696,615.08036 z M 458.28571,616.33036 L 458.28571,638.36161 C 458.28571,641.54955 458.35616,644.35835 458.50446,646.79911 L 471.87946,646.79911 C 471.78268,645.34378 471.72321,643.73828 471.72321,641.83036 L 471.72321,616.33036 L 458.28571,616.33036 z M 491.47321,616.33036 L 491.47321,642.26786 C 491.47321,644.02116 491.41887,645.47776 491.34821,646.79911 L 504.53571,646.79911 C 504.68915,644.41508 504.78571,641.7665 504.78571,638.76786 L 504.78571,616.33036 L 491.47321,616.33036 z M 633.28571,626.20536 C 636.69029,626.20536 639.6768,627.13829 642.25446,628.98661 C 644.83246,630.83496 646.56623,633.22356 647.44196,636.17411 L 618.69196,636.17411 C 620.18356,632.89911 621.81585,630.62742 623.56696,629.33036 C 626.35564,627.25517 629.58902,626.20539 633.28571,626.20536 z M 157.56696,626.29911 C 160.97187,626.29911 163.95772,627.232 166.53571,629.08036 C 169.11371,630.92871 170.84783,633.31727 171.72321,636.26786 L 142.97321,636.26786 C 144.46481,632.99286 146.09712,630.72119 147.84821,629.42411 C 150.63689,627.34892 153.87059,626.2991 157.56696,626.29911 z M 221.37946,626.29911 C 224.78404,626.29911 227.77055,627.232 230.34821,629.08036 C 232.92621,630.92871 234.66034,633.31727 235.53571,636.26786 L 206.78571,636.26786 C 208.27731,632.99286 209.90962,630.72119 211.66071,629.42411 C 214.44939,627.34892 217.68277,626.2991 221.37946,626.29911 z"
         style="font-size:3.0212543px;font-style:normal;font-variant:normal;font-weight:bold;font-stretch:normal;text-align:start;line-height:125%;writing-mode:lr-tb;text-anchor:start;fill:url(#linearGradient4089);fill-opacity:1;stroke:none;stroke-width:1px;stroke-linecap:butt;stroke-linejoin:miter;stroke-opacity:1;font-family:Century Gothic;-inkscape-font-specification:Century Gothic Bold" />
    </g>
    <g
       id="g3969"
       transform="matrix(0.7050969,0.4070879,-0.4070879,0.7050969,21.350507,-133.23149)">
      <g
         style="opacity:0.72682932;fill:#000000;filter:url(#filter3400)"
         transform="translate(-0.2449049,1.8506388)"
         id="g3298">
        <path
           style="fill:#000000;fill-opacity:1;fill-rule:evenodd;stroke:none;stroke-width:4.84871054;stroke-linecap:round;stroke-linejoin:round;stroke-miterlimit:4;stroke-dasharray:none;stroke-opacity:1"
           d="M 409.78125,542.1875 C 409.28647,542.26543 408.82796,542.49468 408.46875,542.84375 C 408.46875,542.84375 404.66022,546.34228 400.3125,550.875 C 395.96478,555.40772 391.09229,560.85162 388.625,565.375 C 388.20801,566.15402 388.24783,567.0982 388.72892,567.83934 C 389.21002,568.58048 390.0562,569.00123 390.9375,568.9375 C 390.9375,568.9375 407.2813,567.45479 434.125,577.09375 C 460.9687,586.73271 498.06616,607.5138 538.75,652.375 C 539.49914,653.19467 540.70936,653.40067 541.6875,652.875 C 546.80823,650.10126 551.87037,644.27427 555.96875,639.0625 L 562.4375,629.875 C 562.4375,629.875 544.79598,604.77626 516.75,583.5 C 488.70402,562.22374 450.56906,541.06665 410.03125,542.1875 C 409.94797,542.1832 409.86453,542.1832 409.78125,542.1875 z"
           id="path3300"
           sodipodi:nodetypes="ccscscsccccscc" />
        <path
           sodipodi:type="arc"
           style="opacity:1;fill:#000000;fill-opacity:1;fill-rule:evenodd;stroke:none;stroke-width:4.80000019;stroke-linecap:round;stroke-linejoin:round;marker:none;marker-start:none;marker-mid:none;marker-end:none;stroke-miterlimit:4;stroke-dasharray:none;stroke-dashoffset:0;stroke-opacity:1;visibility:visible;display:inline;overflow:visible;enable-background:accumulate"
           id="path3302"
           sodipodi:cx="533.57141"
           sodipodi:cy="526.64789"
           sodipodi:rx="40"
           sodipodi:ry="14.285714"
           d="M 573.57141,526.64789 A 40,14.285714 0 1 1 493.57141,526.64789 A 40,14.285714 0 1 1 573.57141,526.64789 z"
           transform="matrix(0.8627961,0.6766786,-1.0517237,1.3409957,596.29603,-471.71243)" />
      </g>
      <path
         id="path3406"
         d="M 415.57589,542.57142 C 414.31401,542.56361 413.06145,542.56764 411.79464,542.60267 C 411.71136,542.59836 411.62792,542.59837 411.54464,542.60267 C 411.04986,542.68059 410.59135,542.90985 410.23214,543.25892 C 410.23214,543.25891 406.42361,546.75745 402.07589,551.29017 C 397.72817,555.82288 392.85568,561.26679 390.38839,565.79017 C 389.9714,566.56918 390.00105,567.51778 390.48214,568.25892 C 390.96322,569.00004 391.81959,569.4164 392.70089,569.35267 C 392.70089,569.35266 409.04469,567.86996 435.88839,577.50892 C 446.35666,581.26783 458.3843,586.71877 471.57589,594.63392 C 475.4454,601.71027 481.57729,608.941 489.51339,615.16517 C 498.29191,622.05004 507.72421,626.51174 516.16964,628.29017 C 524.09715,635.53518 532.23249,643.659 540.51339,652.79017 C 541.26253,653.60983 542.47275,653.81584 543.45089,653.29017 C 548.57162,650.51642 553.63376,644.68944 557.73214,639.47767 L 564.20089,630.29017 C 564.20089,630.29017 555.19391,617.53911 539.88839,602.50892 C 536.49028,593.88458 529.41275,584.59209 519.54464,576.85267 C 508.38529,568.10056 496.15371,563.26748 486.26339,562.88392 C 464.98201,551.29084 440.78931,542.72745 415.57589,542.57142 z"
         style="fill:#2a7fff;fill-opacity:1;fill-rule:evenodd;stroke:none;stroke-width:4.84871054;stroke-linecap:round;stroke-linejoin:round;stroke-miterlimit:4;stroke-dasharray:none;stroke-opacity:1" />
      <path
         id="path3923"
         d="M 415.71875,542.28125 C 414.45686,542.27342 413.20431,542.27747 411.9375,542.3125 C 411.85421,542.30817 411.77078,542.3082 411.6875,542.3125 C 411.19271,542.3904 410.73421,542.61968 410.375,542.96875 C 410.37499,542.96872 407.61035,545.56317 404.125,549.09375 C 404.40905,549.17366 404.69589,549.20949 405,549.1875 C 405.00001,549.18749 422.61144,547.58431 451.53125,557.96875 C 479.66613,568.07134 518.25588,589.52905 560.6875,635.1875 L 564.34375,630 C 564.34377,629.99998 555.33677,617.24894 540.03125,602.21875 C 536.63316,593.59439 529.55561,584.30192 519.6875,576.5625 C 508.52817,567.81037 496.29657,562.97731 486.40625,562.59375 C 465.12486,551.00065 440.93217,542.43728 415.71875,542.28125 z M 402.84375,553.875 C 400.74081,553.86304 399.625,553.96875 399.625,553.96875 C 399.57116,553.97264 399.52225,553.96821 399.46875,553.96875 C 395.95271,557.79623 392.48542,561.91734 390.53125,565.5 C 390.11425,566.27899 390.14391,567.22761 390.625,567.96875 C 391.10607,568.70985 391.96245,569.12623 392.84375,569.0625 C 392.84374,569.06247 409.18755,567.57979 436.03125,577.21875 C 446.49951,580.97764 458.52716,586.4286 471.71875,594.34375 C 475.58825,601.42008 481.72015,608.65083 489.65625,614.875 C 498.43476,621.75985 507.86707,626.22157 516.3125,628 C 524.24003,635.24499 532.37535,643.36883 540.65625,652.5 C 541.40541,653.31964 542.61561,653.52567 543.59375,653 C 548.08547,650.56696 552.55311,645.81183 556.34375,641.15625 C 513.49613,594.70949 474.52527,572.93669 446.15625,562.75 C 424.46639,554.96167 409.15258,553.91087 402.84375,553.875 z"
         style="opacity:0.4857143;fill:#003380;fill-opacity:1;fill-rule:evenodd;stroke:none;stroke-width:4.84871054;stroke-linecap:round;stroke-linejoin:round;stroke-miterlimit:4;stroke-dasharray:none;stroke-opacity:1" />
      <path
         id="path3466"
         d="M 487.53869,569.00062 C 482.53535,568.38719 476.45384,572.29856 478.28869,577.96937 C 480.84704,592.75015 492.2223,604.55622 504.38244,612.43812 C 513.62332,618.05319 524.87049,622.64043 535.75744,620.34437 C 542.62767,616.76328 539.4513,607.57331 537.06994,602.18812 C 528.62022,586.75696 513.44123,574.71802 496.47619,569.78187 C 493.564,569.03832 490.5377,568.79726 487.53869,569.00062 z"
         style="opacity:0.72682932;fill:url(#linearGradient4079);fill-opacity:1;fill-rule:evenodd;stroke:none;stroke-width:4.80000019;stroke-linecap:round;stroke-linejoin:round;marker:none;marker-start:none;marker-mid:none;marker-end:none;stroke-miterlimit:4;stroke-dasharray:none;stroke-dashoffset:0;stroke-opacity:1;visibility:visible;display:inline;overflow:visible;filter:url(#filter3564);enable-background:accumulate" />
      <path
         id="path3415"
         d="M 415.6875,544.21875 C 414.52332,544.21131 413.3551,544.22123 412.1875,544.25 C 411.06075,545.35911 409.89,546.47387 408.71875,547.59375 C 449.74938,548.16837 488.13081,569.67253 516.65625,591.3125 C 536.97241,606.72477 552.11965,624.02479 559.65625,633.40625 C 560.46538,632.25949 561.29564,631.13092 562.09375,630 C 554.96699,619.96801 545.93236,611.39814 538.0625,602.125 C 529.24907,583.23308 510.69353,568.70968 490.1875,564.875 C 481.67602,563.89322 474.52154,557.6025 466.3125,555.03125 C 450.22609,548.43555 433.15015,544.33038 415.6875,544.21875 z"
         style="opacity:0.49268296;fill:url(#linearGradient4081);fill-opacity:1;fill-rule:evenodd;stroke:none;stroke-width:4.84871054;stroke-linecap:round;stroke-linejoin:round;stroke-miterlimit:4;stroke-dasharray:none;stroke-opacity:1" />
      <path
         id="path3430"
         d="M 513.6688,576.48965 C 502.95107,570.13936 491.2148,562.13606 475.33996,567.00444 C 467.36299,570.502 469.02033,580.79152 470.73339,584.98237 C 479.36167,606.30613 497.60349,620.4229 519.49299,625.2543 C 524.57457,625.72565 533.69393,627.47395 538.29181,619.21935 C 541.581,604.72629 532.68677,595.87834 526.58536,587.83821 C 522.70182,583.55883 518.37897,579.76401 513.6688,576.48965 z"
         style="opacity:0.05714285;fill:#87cdde;fill-opacity:1;fill-rule:evenodd;stroke:none;stroke-width:4.80000019;stroke-linecap:round;stroke-linejoin:round;marker:none;marker-start:none;marker-mid:none;marker-end:none;stroke-miterlimit:4;stroke-dasharray:none;stroke-dashoffset:0;stroke-opacity:1;visibility:visible;display:inline;overflow:visible;filter:url(#filter3462);enable-background:accumulate" />
      <path
         id="path3568"
         d="M 415.06478,542.57429 C 413.8029,542.56648 412.55034,542.57051 411.28353,542.60554 C 411.20025,542.60123 411.11681,542.60124 411.03353,542.60554 C 410.53875,542.68346 410.08024,542.91272 409.72103,543.26179 C 409.72103,543.26178 405.9125,546.76032 401.56478,551.29304 C 397.21706,555.82575 392.34457,561.26966 389.87728,565.79304 C 389.46029,566.57205 389.48994,567.52065 389.97103,568.26179 C 390.45211,569.00291 391.30848,569.41927 392.18978,569.35554 C 392.18978,569.35553 408.53358,567.87283 435.37728,577.51179 C 445.84555,581.2707 457.87319,586.72164 471.06478,594.63679 C 474.93429,601.71314 481.06618,608.94387 489.00228,615.16804 C 497.7808,622.05291 507.2131,626.51461 515.65853,628.29304 C 523.58604,635.53805 531.72138,643.66187 540.00228,652.79304 C 540.75142,653.6127 541.96164,653.81871 542.93978,653.29304 C 548.06051,650.51929 553.12265,644.69231 557.22103,639.48054 L 563.68978,630.29304 C 563.68978,630.29304 554.6828,617.54198 539.37728,602.51179 C 535.97917,593.88745 528.90164,584.59496 519.03353,576.85554 C 507.87418,568.10343 495.6426,563.27035 485.75228,562.88679 C 464.4709,551.29371 440.2782,542.73032 415.06478,542.57429 z"
         style="opacity:0.76097562;fill:url(#linearGradient4083);fill-opacity:1;fill-rule:evenodd;stroke:none;stroke-width:4.84871054;stroke-linecap:round;stroke-linejoin:round;stroke-miterlimit:4;stroke-dasharray:none;stroke-opacity:1" />
    </g>
    <rect
       style="opacity:1;fill:#ffffff;fill-opacity:1;fill-rule:evenodd;stroke:none;stroke-width:4.80000019000000040;stroke-linecap:round;stroke-linejoin:round;marker:none;marker-start:none;marker-mid:none;marker-end:none;stroke-miterlimit:4;stroke-dasharray:none;stroke-dashoffset:0;stroke-opacity:1;visibility:visible;display:inline;overflow:visible;enable-background:accumulate"
       id="rect2460"
       width="397.14285"
       height="435.71429"
       x="-402.85715"
       y="340.93362" />
    <g
       id="g3912"
       transform="matrix(1.8132994,0,0,1.8132994,-486.08113,-405.50092)">
      <path
         transform="matrix(0.9761415,0,0,1,16.070435,0)"
         id="path3782"
         d="M 620.58567,661.17321 L 619.89817,662.20446 L 616.46067,670.76696 L 609.27317,679.42321 L 609.39817,689.20446 L 620.64817,670.11071 L 620.58567,661.17321 z M 609.27317,679.42321 L 606.61692,682.61071 L 585.89817,676.57946 L 557.36692,668.73571 L 546.55442,673.20446 L 546.55442,673.29821 C 546.55443,673.29819 546.60957,673.48833 546.61692,673.51696 L 546.61692,673.54821 C 546.65527,673.69658 546.72545,673.93752 546.92942,674.54821 C 547.56232,676.58686 549.45996,681.7411 553.30442,683.04821 C 558.08706,684.67432 573.39817,687.92321 573.39817,687.92321 L 573.39817,688.01696 L 577.77317,681.95446 L 609.17942,689.29821 L 609.17942,689.07946 L 609.27317,689.11071 L 609.27317,679.42321 z M 620.30442,661.23571 L 620.17942,661.51696 L 620.36692,661.23571 L 620.30442,661.23571 z"
         style="opacity:0.47317074;fill:#000000;fill-opacity:1;fill-rule:evenodd;stroke:none;stroke-width:1px;stroke-linecap:butt;stroke-linejoin:miter;stroke-opacity:1;filter:url(#filter3908)" />
      <g
         transform="matrix(0.3787658,0,0,0.3787658,293.36519,501.40233)"
         id="g3633">
        <path
           id="path3270"
           d="M 742.9672,441.47243 L 744.22989,487.43437 L 787.91899,426.82522 L 786.90883,380.61074 L 742.9672,441.47243 z"
           style="fill:#07224c;fill-opacity:1;fill-rule:evenodd;stroke:none;stroke-width:1px;stroke-linecap:butt;stroke-linejoin:miter;stroke-opacity:1" />
        <path
           sodipodi:nodetypes="ccccc"
           id="path3449"
           d="M 708.52829,365.70865 L 718.31444,382.10954 L 719.54737,341.22275 L 711.31494,327.14687 L 708.52829,365.70865 z"
           style="fill:#000000;fill-rule:evenodd;stroke:none;stroke-width:0.68128264px;stroke-linecap:butt;stroke-linejoin:miter;stroke-opacity:1;filter:url(#filter3475)"
           transform="matrix(1.2711691,0.7339098,-0.7339098,1.2711691,119.16512,-542.26325)" />
        <path
           sodipodi:nodetypes="ccccc"
           id="path3258"
           d="M 783.46895,395.76859 L 752.31665,442.49008 L 839.3821,463.69033 L 868.25043,416.71909 L 783.46895,395.76859 z"
           style="fill:#b3b3b3;fill-rule:evenodd;stroke:#b3b3b3;stroke-width:1.01103103px;stroke-linecap:butt;stroke-linejoin:miter;stroke-opacity:1" />
        <path
           sodipodi:nodetypes="ccccc"
           id="path3260"
           d="M 752.0586,443.36652 L 752.56368,470.13556 L 838.93173,490.33862 L 838.93173,463.0645 L 752.0586,443.36652 z"
           style="fill:#e6e6e6;fill-rule:evenodd;stroke:#e6e6e6;stroke-width:1px;stroke-linecap:butt;stroke-linejoin:miter;stroke-opacity:1" />
        <path
           sodipodi:nodetypes="ccccc"
           id="path3607"
           d="M 783.36398,395.36559 L 752.21168,442.08708 L 839.27713,463.28733 L 868.14546,416.31609 L 783.36398,395.36559 z"
           style="opacity:0.54146346;fill:url(#linearGradient3615);fill-opacity:1;fill-rule:evenodd;stroke:none;stroke-width:1.01103103px;stroke-linecap:butt;stroke-linejoin:miter;stroke-opacity:1" />
        <path
           sodipodi:nodetypes="ccccc"
           id="path3262"
           d="M 838.93172,462.93823 L 839.31052,490.59116 L 868.98377,440.20979 L 868.85749,416.59747 L 838.93172,462.93823 z"
           style="fill:#4d4d4d;fill-rule:evenodd;stroke:none;stroke-width:0.68128264px;stroke-linecap:butt;stroke-linejoin:miter;stroke-opacity:1" />
        <path
           id="path3272"
           d="M 672.50906,401.06633 L 673.51921,449.30111 C 673.51921,449.30111 678.56997,470.00924 691.19688,474.30239 C 703.82379,478.59554 744.22989,487.18183 744.22989,487.18183 L 743.47227,440.96735 L 672.50906,401.06633 z"
           style="fill:#003380;fill-opacity:1;fill-rule:evenodd;stroke:none;stroke-width:1px;stroke-linecap:butt;stroke-linejoin:miter;stroke-opacity:1" />
        <path
           id="path3551"
           d="M 672.35387,400.37586 L 673.36402,448.61064 C 673.36402,448.61064 678.41478,469.31877 691.04169,473.61192 C 703.6686,477.90507 744.0747,486.49136 744.0747,486.49136 L 743.31708,440.27688 L 672.35387,400.37586 z"
           style="opacity:0.84390247;fill:url(#linearGradient3559);fill-opacity:1;fill-rule:evenodd;stroke:none;stroke-width:1px;stroke-linecap:butt;stroke-linejoin:miter;stroke-opacity:1" />
        <path
           sodipodi:nodetypes="csscc"
           id="path3266"
           d="M 787.29662,380.71534 C 734.26927,371.11889 694.96783,367.60806 678.06139,386.92419 C 664.5813,402.32563 676.53908,424.0473 693.03084,429.09806 C 709.5226,434.14882 743.521,441.21989 743.521,441.21989 L 787.29662,380.71534 z"
           style="fill:#1550aa;fill-opacity:1;fill-rule:evenodd;stroke:none;stroke-width:1px;stroke-linecap:butt;stroke-linejoin:miter;stroke-opacity:1" />
        <path
           id="path3274"
           d="M 799.66201,435.28525 L 799.66201,435.28525 L 793.34856,444.50289 L 806.60681,447.15454 L 813.42534,438.3157 L 799.66201,435.28525 z"
           style="fill:#000000;fill-rule:evenodd;stroke:none;stroke-width:1px;stroke-linecap:butt;stroke-linejoin:miter;stroke-opacity:1;filter:url(#filter3629)" />
        <path
           id="path3277"
           d="M 735.77538,325.2426 L 735.77538,325.2426 L 735.1903,332.83171 L 743.91604,329.87989 L 744.92815,322.34223 L 735.77538,325.2426 z"
           style="fill:#000000;fill-rule:evenodd;stroke:none;stroke-width:1px;stroke-linecap:butt;stroke-linejoin:miter;stroke-opacity:1;filter:url(#filter3625)"
           transform="matrix(1.2711691,0.7339098,-0.7339098,1.2711691,119.16512,-542.26325)" />
        <path
           sodipodi:nodetypes="cccccc"
           id="path3279"
           d="M 722.03224,339.63385 L 722.03224,339.63385 L 721.44716,347.22295 L 724.44177,346.38801 L 724.79182,338.73593 L 722.03224,339.63385 z"
           style="opacity:0.43902438;fill:#000000;fill-rule:evenodd;stroke:none;stroke-width:1px;stroke-linecap:butt;stroke-linejoin:miter;stroke-opacity:1;filter:url(#filter3333)"
           transform="matrix(1.2711691,0.7339098,-0.7339098,1.2711691,119.16512,-542.26325)" />
        <path
           sodipodi:nodetypes="ccccc"
           id="path3337"
           d="M 768.93806,347.66991 L 775.41988,359.23075 L 776.05979,324.90693 L 770.11293,315.6491 L 768.93806,347.66991 z"
           style="fill:#000000;fill-rule:evenodd;stroke:none;stroke-width:0.68128264px;stroke-linecap:butt;stroke-linejoin:miter;stroke-opacity:1;filter:url(#filter3373)"
           transform="matrix(1.2711691,0.7339098,-0.7339098,1.2711691,119.16512,-542.26325)" />
        <path
           style="opacity:0.57073215;fill:#2a7fff;fill-opacity:1;fill-rule:evenodd;stroke:none;stroke-width:1px;stroke-linecap:butt;stroke-linejoin:miter;stroke-opacity:1"
           d="M 679.89125,384.87607 C 679.10061,385.61776 678.3277,386.3972 677.61282,387.21779 C 675.32401,389.84506 673.80042,392.6612 672.86608,395.54041 L 765.58576,410.85657 L 773.02233,400.25551 L 679.89125,384.87607 z"
           id="path3547" />
        <path
           style="opacity:0.4585366;fill:url(#linearGradient3595);fill-opacity:1;fill-rule:evenodd;stroke:none;stroke-width:1px;stroke-linecap:butt;stroke-linejoin:miter;stroke-opacity:1"
           d="M 719.37632,374.3751 C 703.80148,374.65706 685.14207,377.29596 676.43342,391.91249 C 668.53397,406.59616 680.87107,424.8938 696.11637,427.91371 C 711.63898,432.26592 727.38467,435.73557 743.10709,439.05804 C 756.979,419.89857 770.85092,400.73911 784.72283,381.57965 C 763.11097,377.8333 741.38734,374.16038 719.37632,374.3751 z"
           id="path3585" />
        <path
           sodipodi:nodetypes="ccccc"
           id="path3597"
           d="M 751.84935,443.84987 L 752.35443,470.61891 L 838.72248,490.82197 L 838.72248,463.54785 L 751.84935,443.84987 z"
           style="opacity:1;fill:url(#linearGradient3605);fill-opacity:1;fill-rule:evenodd;stroke:none;stroke-width:1px;stroke-linecap:butt;stroke-linejoin:miter;stroke-opacity:1" />
      </g>
    </g>
    <g
       id="g4012"
       transform="matrix(1,0,0,0.266203,-14.384218,-52.708794)">
      <rect
         y="967.51062"
         x="6.3029976"
         height="13.988994"
         width="746.99982"
         id="rect3934"
         style="fill:#2a7fff;fill-opacity:1;fill-rule:evenodd;stroke:none;stroke-width:0.550717;stroke-linecap:round;stroke-linejoin:round;marker:none;marker-start:none;marker-mid:none;marker-end:none;stroke-miterlimit:4;stroke-dasharray:none;stroke-dashoffset:0;stroke-opacity:1;visibility:visible;display:inline;overflow:visible;enable-background:accumulate" />
      <rect
         y="977.93616"
         x="6.3029976"
         height="21.157888"
         width="746.98486"
         id="rect3936"
         style="fill:#003380;fill-opacity:1;fill-rule:evenodd;stroke:none;stroke-width:1.27825773;stroke-linecap:round;stroke-linejoin:round;marker:none;marker-start:none;marker-mid:none;marker-end:none;stroke-miterlimit:4;stroke-dasharray:none;stroke-dashoffset:0;stroke-opacity:1;visibility:visible;display:inline;overflow:visible;enable-background:accumulate" />
      <rect
         y="971.68439"
         x="9.8817854"
         height="20.417564"
         width="738.07123"
         id="rect3938"
         style="fill:url(#linearGradient4018);fill-opacity:1;fill-rule:evenodd;stroke:none;stroke-width:0.550717;stroke-linecap:round;stroke-linejoin:round;marker:none;marker-start:none;marker-mid:none;marker-end:none;stroke-miterlimit:4;stroke-dasharray:none;stroke-dashoffset:0;stroke-opacity:1;visibility:visible;display:inline;overflow:visible;enable-background:accumulate" />
      <rect
         y="978.01477"
         x="6.3468513"
         height="21.157888"
         width="746.98486"
         id="rect3974"
         style="opacity:0.73658537;fill:url(#linearGradient4020);fill-opacity:1;fill-rule:evenodd;stroke:none;stroke-width:1.27825773;stroke-linecap:round;stroke-linejoin:round;marker:none;marker-start:none;marker-mid:none;marker-end:none;stroke-miterlimit:4;stroke-dasharray:none;stroke-dashoffset:0;stroke-opacity:1;visibility:visible;display:inline;overflow:visible;enable-background:accumulate" />
    </g>
    <g
       id="g4024"
       transform="matrix(1,0,0,0.266203,-14.384218,702.71042)">
      <rect
         y="967.51062"
         x="6.3029976"
         height="13.988994"
         width="746.99982"
         id="rect4026"
         style="fill:#2a7fff;fill-opacity:1;fill-rule:evenodd;stroke:none;stroke-width:0.550717;stroke-linecap:round;stroke-linejoin:round;marker:none;marker-start:none;marker-mid:none;marker-end:none;stroke-miterlimit:4;stroke-dasharray:none;stroke-dashoffset:0;stroke-opacity:1;visibility:visible;display:inline;overflow:visible;enable-background:accumulate" />
      <rect
         y="977.93616"
         x="6.3029976"
         height="21.157888"
         width="746.98486"
         id="rect4028"
         style="fill:#003380;fill-opacity:1;fill-rule:evenodd;stroke:none;stroke-width:1.27825773;stroke-linecap:round;stroke-linejoin:round;marker:none;marker-start:none;marker-mid:none;marker-end:none;stroke-miterlimit:4;stroke-dasharray:none;stroke-dashoffset:0;stroke-opacity:1;visibility:visible;display:inline;overflow:visible;enable-background:accumulate" />
      <rect
         y="971.68439"
         x="9.8817854"
         height="20.417564"
         width="738.07123"
         id="rect4030"
         style="fill:url(#linearGradient4034);fill-opacity:1;fill-rule:evenodd;stroke:none;stroke-width:0.550717;stroke-linecap:round;stroke-linejoin:round;marker:none;marker-start:none;marker-mid:none;marker-end:none;stroke-miterlimit:4;stroke-dasharray:none;stroke-dashoffset:0;stroke-opacity:1;visibility:visible;display:inline;overflow:visible;enable-background:accumulate" />
      <rect
         y="978.01477"
         x="6.3468513"
         height="21.157888"
         width="746.98486"
         id="rect4032"
         style="opacity:0.73658537;fill:url(#linearGradient4036);fill-opacity:1;fill-rule:evenodd;stroke:none;stroke-width:1.27825773;stroke-linecap:round;stroke-linejoin:round;marker:none;marker-start:none;marker-mid:none;marker-end:none;stroke-miterlimit:4;stroke-dasharray:none;stroke-dashoffset:0;stroke-opacity:1;visibility:visible;display:inline;overflow:visible;enable-background:accumulate" />
    </g>
    <g
       id="g4098"
       transform="matrix(0.93405,0.539274,-0.539274,0.93405,535.23312,-238.71164)"
       style="opacity:0.41951222;stroke:#008080">
      <path
         id="path4058"
         d="M 83.285028,745.70103 C 127.93202,797.55003 82.999066,834.70485 82.999066,834.70485"
         style="fill:none;fill-rule:evenodd;stroke:#008080;stroke-width:5.35818148;stroke-linecap:round;stroke-linejoin:miter;stroke-miterlimit:4;stroke-dasharray:none;stroke-opacity:1" />
      <path
         id="path4060"
         d="M 136.20549,723.23777 C 203.85176,801.79607 135.77222,858.09067 135.77222,858.09067"
         style="fill:none;fill-rule:evenodd;stroke:#008080;stroke-width:5.35818148;stroke-linecap:round;stroke-linejoin:miter;stroke-miterlimit:4;stroke-dasharray:none;stroke-opacity:1" />
      <path
         id="path4064"
         d="M 199.5675,698.82258 C 292.93554,807.25183 198.96948,884.95185 198.96948,884.95185"
         style="fill:none;fill-rule:evenodd;stroke:#008080;stroke-width:5.35818148;stroke-linecap:round;stroke-linejoin:miter;stroke-miterlimit:4;stroke-dasharray:none;stroke-opacity:1" />
      <path
         id="path4068"
         d="M 266.01801,674.6682 C 386.25416,814.29965 265.24792,914.35902 265.24792,914.35902"
         style="fill:none;fill-rule:evenodd;stroke:#008080;stroke-width:5.35818148;stroke-linecap:round;stroke-linejoin:miter;stroke-miterlimit:4;stroke-dasharray:none;stroke-opacity:1" />
      <path
         id="path4070"
         d="M 346.39724,647.14952 C 495.58393,820.40152 345.44173,944.55324 345.44173,944.55324"
         style="fill:none;fill-rule:evenodd;stroke:#008080;stroke-width:5.35818148;stroke-linecap:round;stroke-linejoin:miter;stroke-miterlimit:4;stroke-dasharray:none;stroke-opacity:1" />
    </g>
  </g>
</svg>
